<?xml version="1.0" encoding="UTF-8"?><svg id="Layer_1" xmlns="http://www.w3.org/2000/svg" width="119" height="129" viewBox="0 0 119 129"><defs><style>.cls-1{fill:#003e4a;}</style></defs><path class="cls-1" d="M104.08,40.78c-3.74,2.22-8.92,1.93-13.04,.37-.43-.56-.87-1.1-1.34-1.62,.79-.24,1.57-.51,2.28-.74,2.38-.77,1.14-5.36-.53-6.24-2.57-1.35-5.55-1.56-8.6-1.44,15.63-6.16,23.33-9.59,23.09-10.29-.29-.83-12.04,2.28-35.27,9.35,4.93-12.81,5.79-15.63,5.61-15.71-.22-.09-2.41,3.52-5.7,6.1-.24,.19-.43,.33-.68,.32-2.54-.11-2.97-14.86-4.21-14.89-1.02-.03-2.26,9.91-3.66,27.18-.04,0-.07,.01-.11,.02-.03-.2-.06-.32-.09-.28,0-.23,0-.46,0-.68,.01-2.22-2.57-5.74-3.42-1.94-.2,.89-.17,1.8-.04,2.69,0,.41,0,.82,0,1.23-.27,.08-.54,.15-.8,.24-.14-.18-.28-.36-.41-.57,0,0-.69-1.02-1.15-2.19-.78-1.96,2.59-19.58,3.31-19.35,.52,.17-1.55,9.25-5.15,17.43-.5,1.14-.96,2.1-1.33,2.84l-.71,.71c-.94,.31-1.17,2.04-.83,3.6-.17,.08-.35,.15-.52,.23,1.89-13.64,2.62-20.5,2.18-20.58-.46-.08-2.22,7.32-5.25,22.2-.44,.25-.87,.52-1.3,.79-2-1.58-4.66-3.87-7.43-6.96-8.64-9.62-10.74-18.41-11.44-18.14-.82,.31,1.36,12.76,10.2,23.39l.09,.11c-2.45-1.84-4.99-3.54-8-4.35-1.02-.28-1.56,.92-1.65,1.74-.2,1.93-.18,3.95,.04,5.99-.38-.04-1.49-.17-1.87-.22-11.69-1.36-13.53-1.62-13.64-1.24-.19,.69,5.61,2.21,13.73,7.22,1.45,.89,2.63,1.69,3.46,2.27-.29,.38-.42,1.05-.44,1.79-2.03-1.28-2.36,2.07-1.67,4.23-.29,.24-.59,.45-.9,.63-7.41,4.31-21.05-6.66-24.77-9.78,11.34,4.69,14.2,8.96,14.43,12.19,.14,2-1.71,5.08,.53,6.24,2.45,1.26,4.9,2.56,7.28,3.96-.27,1.34-.48,2.7-.59,4.08C4.03,71.81,0,71.65,0,71.68c0,.05,14.35-1.18,21.91,7.3,.56,.63,.97,1.19,1.19,1.49-2.63,.39-5.26,.85-7.83,1.59-2.36,.68-1.29,6.1,.99,6.28,2.97,.23,5.95,.85,8.82,1.78-16.61,3.19-20.91,4.42-20.84,4.86,.1,.64,9.53-1.52,19.92,2.8,1.94,.81,3.5,1.67,4.62,2.35-16.35,3.33-20.39,4.78-20.3,5.44,.15,1.04,10.45,.01,19.19,2.35,1.9,.51,2.82,.96,4.75,1.06,2.68,.15,5.41-.13,8,.69,.16,.05,.59,.28,.9,.42-.06,.39-.16,.9-.3,1.49-2.26,9.38-11.07,15.47-11.36,15.18-.32-.32,8.28-10.52,11.56-8.96,.92,.44,.82,2.43,1.97,2.05,2.56-.83,5.04-1.99,7.25-3.51,.25,4.1,2.07,7.57,4.64,8.3,3.44,.98,7.7-3.1,9.58-5.96,.98-1.5,1.24-2.56,1.7-2.52,.79,.08,1.44,3.43,1.43,14.84-.52-1.42-6.22-17.29-1.18-20.7,.38-.26,.83-.45,1.38-.56,2.96,.74,5.8,2.49,8.4,3.94,1.14,.64,1.63-1.52,1.67-2.13,.1-1.39-.31-2.81-1.3-3.81-.62-.63-1.16-1.33-1.65-2.06,.67-1,1.32-1.49,1.96-1.47,1.95,.04,3.8,4.74,5.54,14.08-.85-10.33-.37-13.57,.55-13.77,.29-.06,.56,.22,.92,.03,1.28-.65,.28-4.85-.14-5.53-.16-.26-.35-.52-.55-.79,.46-.51,.91-1.03,1.35-1.56,1.26,.25,2.52,.32,3.83-.1,.83-.27,1.15-1.01,1.23-1.86,.59,6.89,1,8.77,1.29,8.76,.36,0,.18-2.93,2.36-5.44,0,0,.53-.61,1.08-1.03,3.65-2.79,13.23,2.7,13.5,2.24,.17-.29-3.23-2.81-17.05-11.58,.6-1.06,1.17-2.14,1.7-3.22,.78,.29,1.76,.63,2.9,.97,11.32,3.38,20.91,1.67,20.92,1.13,0-.63-12.51,1.17-20.13-6.63-.58-.59-1-1.11-1.23-1.4,.12-.37,.23-.74,.34-1.11,1.54,.19,3.08,.54,4.62,.73,.4,.05,.71-.02,.96-.17,1.24-.77-1.49-4.45-.59-5.77,.6-.89,2.91-.99,9.68,1.63-4.34-2.5-7.98-5.04-7.53-6.36,.86-2.49,15.81,.88,16,0,.11-.52-5.05-2.3-21.07-6.55v-.03c17.42,1.06,21.01,.73,21.07,.23,.09-.81-9.23-1.2-13.85-7.85-.71-1.02-2.31-3.32-1.57-5.13,1.11-2.7,7.08-3.4,15.41-1.85-11.43,1.24-14.67,1.49-14.69,1.37,0-.08,1.07-.4,1.97-.93,1.85-1.09,.59-6.98-1.84-5.91Z"/></svg>