<?xml version="1.0" encoding="UTF-8"?><svg id="Layer_1" xmlns="http://www.w3.org/2000/svg" width="162" height="158" viewBox="0 0 162 158"><defs><style>.cls-1{fill:#e3ff4a;}</style></defs><path class="cls-1" d="M144.96,58.91c-5.5,1.54-11.96-.58-16.65-3.96-.35-.85-.74-1.69-1.15-2.5,1.08-.04,2.16-.11,3.13-.16,3.28-.17,3.26-6.4,1.44-8.08-2.8-2.58-6.51-3.86-10.4-4.74,21.9-2.51,32.81-4.24,32.74-5.2-.08-1.16-16.04-1.19-47.86-.11,10.6-14.56,12.64-17.84,12.43-18-.25-.19-4.25,3.64-9.3,5.8-.37,.16-.66,.27-.97,.17-3.18-1,1.27-19.83-.28-20.3-1.28-.38-6.23,11.79-13.86,33.2-.05,0-.1,0-.15,0,.03-.26,.04-.43-.02-.38,.08-.29,.16-.58,.24-.86,.77-2.81-1.31-8.14-3.68-3.62-.55,1.06-.82,2.22-.96,3.4-.14,.52-.28,1.04-.41,1.55-.36,.02-.73,.01-1.09,.03-.12-.27-.24-.55-.32-.85,0,0-.53-1.53-.72-3.17-.32-2.75,9.93-23.94,10.76-23.4,.6,.39-5.11,11.2-12.44,20.34-1.02,1.27-1.93,2.34-2.65,3.15l-1.14,.66c-1.3,.08-2.17,2.19-2.27,4.28-.24,.04-.49,.07-.73,.11,7.03-16.65,10.27-25.09,9.74-25.34-.56-.26-5.29,8.52-14.18,26.34-.65,.17-1.28,.37-1.92,.55-2-2.68-4.59-6.48-7.05-11.33C57.55,11.36,57.86-.49,56.89-.39c-1.14,.12-2.61,16.63,5,33.1l.08,.17c-2.49-3.16-5.13-6.17-8.66-8.23-1.2-.7-2.29,.64-2.68,1.65-.91,2.37-1.56,4.94-1.98,7.61-.46-.18-1.83-.73-2.3-.91-14.35-5.69-16.6-6.65-16.86-6.2-.48,.81,6.36,4.71,14.94,13.81,1.53,1.62,2.76,3.03,3.62,4.04-.49,.38-.89,1.19-1.17,2.12-2.14-2.31-3.69,1.82-3.55,4.79-.45,.2-.9,.36-1.36,.49-10.86,2.94-24.41-15.58-28.06-20.79,12.79,9.79,14.96,16.17,14.15,20.35-.5,2.58-3.89,5.86-1.44,8.08,2.68,2.43,5.34,4.91,7.89,7.48-.8,1.61-1.52,3.27-2.14,4.98C7.65,64.29,2.59,62.72,2.58,62.76c-.02,.07,18.58,3.37,25.28,16.68,.5,.99,.83,1.83,1,2.3-3.47-.4-6.95-.7-10.46-.64-3.23,.06-3.71,7.29-.87,8.29,3.69,1.3,7.25,3.1,10.57,5.25C5.99,93.05,.11,93.15,.05,93.73c-.09,.85,12.59,1.3,24.29,10.3,2.18,1.68,3.87,3.3,5.05,4.54-21.85-1.33-27.46-.86-27.57,.01-.17,1.37,13.23,3.56,23.52,9.49,2.24,1.29,3.25,2.17,5.66,2.96,3.34,1.1,6.9,1.67,9.91,3.58,.18,.12,.65,.55,1,.84-.21,.47-.5,1.08-.88,1.78-6.04,11.12-19.27,15.85-19.54,15.38-.3-.52,14.06-10.52,17.69-7.44,1.02,.87,.21,3.35,1.8,3.27,3.52-.19,7.06-.81,10.38-1.99-1.08,5.28,.05,10.3,3.07,12.1,4.03,2.41,10.81-1.31,14.16-4.31,1.76-1.57,2.45-2.83,3.01-2.61,.98,.37,.67,4.84-3.21,19.29-.18-1.98-2.02-24.02,5.52-26.63,.57-.2,1.21-.29,1.94-.24,3.5,1.94,6.51,5.12,9.31,7.84,1.22,1.19,2.58-1.38,2.84-2.13,.6-1.73,.56-3.67-.36-5.27-.58-1.01-1.02-2.08-1.38-3.17,1.18-1.04,2.18-1.44,2.99-1.2,2.46,.72,3.21,7.29,2.25,19.72,2.42-13.38,4.14-17.33,5.36-17.26,.39,.02,.63,.46,1.16,.35,1.85-.39,2-6.06,1.7-7.06-.11-.38-.27-.78-.43-1.19,.76-.49,1.5-1,2.24-1.52,1.51,.75,3.09,1.27,4.89,1.17,1.14-.06,1.8-.89,2.19-1.94-1.59,8.93-1.71,11.45-1.34,11.54,.46,.11,1.22-3.65,4.84-6.09,0,0,.88-.59,1.72-.94,5.57-2.29,15.84,7.91,16.35,7.41,.31-.31-3.14-4.65-17.67-20.46,1.12-1.14,2.21-2.31,3.25-3.5,.89,.63,2.01,1.39,3.35,2.21,13.2,8.12,25.93,9.21,26.13,8.52,.22-.79-16.25-2.77-23.26-15.23-.53-.95-.89-1.75-1.09-2.19,.28-.42,.54-.86,.81-1.29,1.89,.76,3.72,1.73,5.6,2.5,.49,.2,.91,.22,1.27,.11,1.83-.56-.38-6.14,1.21-7.51,1.07-.92,4.03-.27,11.71,5.35-4.65-4.65-8.41-9.09-7.38-10.61,1.94-2.87,19.73,6.47,20.27,5.43,.32-.62-5.61-4.63-24.48-15.45v-.04c21.72,7.25,26.39,8.05,26.63,7.44,.39-1-11.29-4.65-14.88-14.64-.55-1.53-1.8-4.99-.24-7.03,2.32-3.04,10.12-1.9,20.16,2.88-14.9-2.31-19.1-3.09-19.08-3.24,.01-.1,1.48-.14,2.82-.51,2.71-.76,3.12-8.65-.33-8.12Z"/></svg>