<?xml version="1.0" encoding="UTF-8"?><svg id="Layer_1" xmlns="http://www.w3.org/2000/svg" width="905" height="315" xmlns:xlink="http://www.w3.org/1999/xlink" viewBox="0 0 905 315"><defs><style>.cls-1{fill:#ffa1ff;}.cls-2{fill:#f0f;}</style></defs><path class="cls-2" d="M698.07,226.65l-.05-.12h2.9l-.05,.12h-2.8Zm-17.36-45.66h.01l.12,.35-.13-.35Z"/><image width="956" height="351" transform="translate(-27 -25)" xlink:href="Artboard 131.png"/><path class="cls-1" d="M390.7,117.03c-26.66,0-44.57-20.37-44.57-50.69s18.97-52.58,46.14-52.58,44.57,20.31,44.57,50.54c0,32.03-18.11,52.73-46.14,52.73Zm.94-98.12c-25.5,0-36.91,23.66-36.91,47.12s12.62,45.86,36.75,45.86c21.73,0,36.91-19.31,36.91-46.96,0-22.87-12.62-46.02-36.75-46.02Z"/><path class="cls-1" d="M266.88,115.3V16.3c7.26-1.07,15.06-1.61,23.22-1.61,12.44,0,21.75,2.7,27.67,8.02,5.35,4.63,8.27,11.68,8.27,19.91s-2.46,15.52-7.32,20.52c-6.5,6.92-17.21,10.71-30.19,10.71-3.39,0-7.26-.1-10.26-.85l-3.73-.93v43.23h-7.66Zm23.53-95.77c-5.81,0-10.79,.44-13.65,1.2l-2.23,.59v45.75l2.24,.59c3.1,.82,6.94,1.2,12.07,1.2,18.49,0,29.53-9.57,29.53-25.61,0-14.85-10.45-23.72-27.96-23.72Z"/><path class="cls-1" d="M458.58,115.3V16.3c7.26-1.07,15.06-1.61,23.22-1.61,12.44,0,21.75,2.7,27.67,8.02,5.35,4.63,8.27,11.68,8.27,19.91s-2.46,15.52-7.32,20.52c-6.5,6.92-17.21,10.71-30.19,10.71-3.39,0-7.26-.1-10.26-.85l-3.73-.93v43.23h-7.66Zm23.53-95.77c-5.81,0-10.79,.44-13.65,1.2l-2.23,.59v45.75l2.24,.59c3.1,.82,6.94,1.2,12.07,1.2,18.49,0,29.53-9.57,29.53-25.61,0-14.85-10.45-23.72-27.96-23.72Z"/><path class="cls-1" d="M104.81,283.3l-2.51-43.64c-.77-14.41-1.72-32.35-1.57-45.48l.04-3.04h-5.76l-.63,2.16c-3.53,12.13-7.88,25.21-13.28,40l-17.97,49.37h-6.11l-16.42-48.36c-5.77-17.14-9.53-29.74-12.17-40.86l-.55-2.31h-5.61l-.07,2.93c-.31,12.95-1.07,30.4-2.04,46.68l-2.65,42.55h-7l6.96-99.82h12.51l17.35,49.18c4.95,14.66,8.21,25.57,10.59,35.35l.56,2.29h5.17l.57-2.27c2.38-9.52,5.79-20.43,11.07-35.37l18.1-49.18h12.51l6.22,99.82h-7.32Z"/><path class="cls-1" d="M162.1,285.03c-8.67,0-23.22-3.93-23.22-30.28v-41.43h7.82v39.08c0,22.46,10.85,27.18,19.96,27.18,11.12,0,18.26-7.77,20.99-14.42,.96-2.5,1.48-5.4,1.48-8.2v-43.63h7.82v52.26c0,7.14,.13,12.87,.42,17.72h-6.22l-.79-12.4h-4.84l-.87,1.48c-2.24,3.8-8.93,12.65-22.54,12.65Z"/><path class="cls-1" d="M238.88,284.87c-6.48,0-12.79-1.31-17.71-3.65l1.53-4.65c4.36,2.15,10.38,4.09,16.5,4.09,13.11,0,17.76-7.71,17.76-14.3,0-9-6.43-13.22-16.09-16.79-12.04-4.29-18.13-10.58-18.13-18.69,0-11.36,9.55-19.29,23.22-19.29,5.28,0,10.71,1.16,15.01,3.16l-1.47,4.27c-3.29-1.54-8.03-3.07-13.86-3.07-9.25,0-15.72,5.49-15.72,13.36,0,8.74,7.1,12.14,16.38,15.68,12.79,4.87,18.01,10.7,18.01,20.12,0,12.19-9.74,19.76-25.42,19.76Z"/><path class="cls-1" d="M288.03,283.3v-69.99h7.82v69.99h-7.82Zm3.59-88.86c-3.08,0-5.32-2.3-5.32-5.48s2.37-5.63,5.64-5.63,5.48,2.21,5.48,5.63v.1c.05,1.48-.41,2.77-1.34,3.73-1.04,1.08-2.58,1.65-4.45,1.65Z"/><path class="cls-1" d="M354.11,284.87c-21.16,0-34.84-14.04-34.84-35.78s15.2-37.35,37.82-37.35c5.98,0,11.68,1.21,15.53,2.63l-1.4,4.76c-3.31-1.3-7.95-2.4-14.12-2.4-17.85,0-29.85,12.75-29.85,31.73s12.08,31.42,29.38,31.42c6.14,0,10.81-1.16,14.82-2.65l1.02,4.51c-3.7,1.44-10.22,3.13-18.35,3.13Z"/><polygon class="cls-1" points="428.86 283.3 428.86 183.48 479.85 183.48 479.85 188.94 436.52 188.94 436.52 230.11 476.55 230.11 476.55 235.41 436.52 235.41 436.52 283.3 428.86 283.3"/><path class="cls-1" d="M528.85,284.87c-21.2,0-34.37-13.53-34.37-35.31s13.12-37.98,32.64-37.98c27.6,0,28.4,29.44,28.4,32.8,0,1.28-.07,2.43-.16,3.44h-53.74l.05,3.05c.36,21.62,15.25,29.33,29.06,29.33,8.63,0,14.46-1.31,18.92-2.88l.97,4.05c-4.68,1.76-11.81,3.5-21.77,3.5Zm-2.83-69.39c-14.71,0-22.74,12.61-24.18,25.11l-.38,3.34h46.66l.05-2.95c.07-3.73-.47-13.09-6.84-19.59-3.86-3.93-9.01-5.92-15.31-5.92Z"/><path class="cls-1" d="M591.65,284.87c-6.48,0-12.79-1.31-17.71-3.65l1.53-4.65c4.36,2.15,10.38,4.09,16.5,4.09,13.11,0,17.76-7.71,17.76-14.3,0-9-6.43-13.22-16.09-16.79-12.04-4.29-18.13-10.58-18.13-18.69,0-11.36,9.55-19.29,23.22-19.29,5.28,0,10.71,1.16,15.01,3.16l-1.47,4.27c-3.29-1.54-8.03-3.07-13.86-3.07-9.25,0-15.72,5.49-15.72,13.36,0,8.74,7.1,12.14,16.38,15.68,12.79,4.87,18.01,10.7,18.01,20.12,0,12.19-9.74,19.76-25.42,19.76Z"/><path class="cls-1" d="M661.2,284.87c-5.54,0-9.92-1.65-12.66-4.79l-.1-.1c-3.07-3.19-4.5-8.82-4.5-17.7v-44.45h-11.77v-4.52h11.77v-18.91l7.5-2.01v20.91h19.78v4.52h-19.78v43.98c0,11.78,4.5,17.76,13.36,17.76,2.02,0,3.76-.14,5.22-.34l.28,4.64c-2.46,.65-5.65,1-9.11,1Z"/><path class="cls-1" d="M692.78,283.3v-69.99h7.82v69.99h-7.82Zm3.59-88.86c-3.08,0-5.32-2.3-5.32-5.48s2.37-5.63,5.64-5.63,5.48,2.21,5.48,5.63v.1c.05,1.48-.41,2.77-1.34,3.73-1.04,1.08-2.58,1.65-4.45,1.65Z"/><path class="cls-1" d="M748.05,283.3l-26.61-69.99h8.28l14.21,40.69c2.75,7.58,4.62,13.49,6.04,19.21l.57,2.27h5.1l.61-2.21c1.63-5.92,3.72-11.97,6.36-19.24l14.08-40.73h7.91l-27.47,69.99h-9.07Z"/><path class="cls-1" d="M818.67,285.03c-13.9,0-20.24-9.76-20.24-18.82,0-21.98,26.32-25.26,42.01-25.26l3.68,.02v-4.58c0-13.27-7.2-20.58-20.27-20.58-6.16,0-12.69,1.56-18.12,4.26l-1.17-3.39c5.88-3.2,13.66-5.08,21.33-5.08,17.18,0,25.89,9.45,25.89,28.09v28.42c0,6,.25,11.02,.77,15.21h-6.4l-1.1-9.58h-4.7l-.9,1.26c-4.47,6.29-12.24,10.04-20.79,10.04Zm20.54-40.53c-27.24,0-32.96,10.95-32.96,20.14,0,9.68,6.44,16.19,16.03,16.19,11.94,0,18.88-7.94,21.21-14.75,.44-1.3,.95-3.27,.95-5.37v-16.13l-2.94-.06c-.76-.02-1.52-.02-2.29-.02Z"/><rect class="cls-1" x="882.07" y="181.83" width="7.82" height="105.17"/></svg>