<?xml version="1.0" encoding="UTF-8"?><svg id="Layer_1" xmlns="http://www.w3.org/2000/svg" width="104.17" height="114.47" viewBox="0 0 104.17 114.47"><defs><style>.cls-1{fill:#d4003b;}</style></defs><path class="cls-1" d="M93.49,28.86c-3.06,1.81-7.28,1.58-10.65,.3-.35-.46-.71-.9-1.1-1.32,.64-.2,1.28-.41,1.86-.6,1.95-.63,.93-4.37-.44-5.09-2.1-1.1-4.53-1.27-7.02-1.18,12.76-5.03,19.04-7.83,18.84-8.39-.23-.68-9.83,1.86-28.78,7.63,4.03-10.46,4.73-12.76,4.58-12.82-.18-.08-1.97,2.87-4.66,4.98-.2,.16-.35,.27-.56,.26-2.07-.09-2.43-12.13-3.43-12.15-.83-.02-1.85,8.09-2.99,22.18-.03,0-.06,.01-.09,.02-.02-.16-.05-.26-.08-.23,0-.19,0-.37,0-.56,.01-1.81-2.09-4.68-2.79-1.58-.16,.72-.14,1.47-.03,2.2,0,.33,0,.67,0,1-.22,.07-.44,.12-.65,.2-.12-.14-.23-.29-.33-.46,0,0-.56-.84-.94-1.79-.64-1.6,2.11-15.98,2.7-15.79,.43,.14-1.27,7.55-4.2,14.23-.41,.93-.78,1.71-1.08,2.32l-.58,.58c-.77,.26-.96,1.66-.67,2.94-.14,.07-.28,.12-.42,.19,1.55-11.14,2.14-16.73,1.78-16.79-.38-.07-1.81,5.97-4.29,18.12-.36,.2-.71,.43-1.06,.64-1.63-1.29-3.8-3.16-6.06-5.68-7.05-7.85-8.77-15.03-9.34-14.81-.67,.26,1.11,10.41,8.33,19.09l.08,.09c-2-1.5-4.08-2.89-6.53-3.55-.83-.23-1.28,.75-1.35,1.42-.17,1.57-.14,3.22,.03,4.89-.31-.04-1.22-.14-1.53-.18-9.54-1.11-11.05-1.33-11.13-1.01-.16,.56,4.58,1.81,11.2,5.9,1.18,.73,2.14,1.38,2.83,1.85-.24,.31-.34,.86-.36,1.46-1.66-1.05-1.92,1.69-1.36,3.45-.24,.19-.48,.36-.74,.51-6.05,3.52-17.18-5.44-20.21-7.98,9.26,3.83,11.59,7.31,11.78,9.95,.11,1.63-1.39,4.15,.44,5.09,2,1.03,4,2.09,5.95,3.23-.22,1.1-.39,2.21-.48,3.33-16.11-.75-19.4-.88-19.4-.86,0,.04,11.71-.96,17.88,5.96,.46,.52,.79,.97,.97,1.22-2.15,.32-4.29,.7-6.39,1.3-1.93,.55-1.06,4.98,.81,5.12,2.43,.19,4.86,.7,7.2,1.45-13.55,2.61-17.07,3.61-17.01,3.97,.08,.53,7.78-1.24,16.26,2.29,1.58,.66,2.86,1.36,3.77,1.92-13.35,2.72-16.64,3.9-16.57,4.44,.12,.85,8.53,0,15.66,1.92,1.55,.42,2.3,.78,3.88,.87,2.19,.12,4.41-.1,6.53,.56,.13,.04,.48,.23,.74,.34-.05,.32-.13,.73-.24,1.21-1.84,7.66-9.04,12.62-9.27,12.39-.26-.26,6.76-8.58,9.44-7.32,.75,.36,.67,1.98,1.61,1.67,2.09-.68,4.11-1.62,5.92-2.86,.2,3.35,1.69,6.18,3.79,6.78,2.81,.8,6.28-2.53,7.82-4.87,.8-1.23,1.02-2.09,1.39-2.05,.65,.07,1.18,2.8,1.17,12.11-.43-1.16-5.08-14.11-.97-16.89,.31-.21,.68-.37,1.13-.46,2.42,.6,4.74,2.03,6.85,3.21,.93,.52,1.33-1.24,1.37-1.74,.08-1.14-.26-2.3-1.06-3.11-.51-.51-.95-1.09-1.34-1.68,.54-.81,1.08-1.21,1.6-1.2,1.59,.04,3.1,3.87,4.52,11.49-.7-8.43-.3-11.08,.45-11.24,.24-.05,.45,.18,.75,.02,1.05-.53,.23-3.96-.11-4.52-.13-.21-.29-.43-.45-.64,.38-.42,.74-.84,1.1-1.27,1.03,.21,2.06,.26,3.12-.08,.68-.22,.94-.83,1-1.52,.48,5.63,.81,7.15,1.05,7.15,.29,0,.15-2.39,1.93-4.44,0,0,.43-.5,.88-.84,2.98-2.27,10.8,2.21,11.02,1.82,.14-.24-2.63-2.29-13.92-9.45,.49-.87,.96-1.74,1.39-2.63,.63,.23,1.43,.51,2.37,.79,9.24,2.76,17.07,1.37,17.08,.92,0-.51-10.21,.95-16.43-5.41-.47-.48-.82-.91-1-1.14,.1-.3,.19-.6,.28-.91,1.26,.15,2.52,.44,3.77,.6,.32,.04,.58-.01,.78-.14,1.01-.63-1.22-3.63-.48-4.71,.49-.72,2.38-.81,7.9,1.33-3.54-2.04-6.52-4.11-6.14-5.19,.7-2.03,12.9,.72,13.06,0,.09-.43-4.12-1.88-17.2-5.35v-.03c14.21,.87,17.15,.6,17.2,.19,.07-.66-7.53-.98-11.3-6.41-.58-.83-1.88-2.71-1.28-4.19,.9-2.2,5.78-2.77,12.58-1.51-9.33,1.01-11.98,1.21-11.99,1.12,0-.06,.87-.32,1.61-.76,1.51-.89,.48-5.7-1.5-4.83Z"/></svg>