<?xml version="1.0" encoding="UTF-8"?><svg id="Layer_1" xmlns="http://www.w3.org/2000/svg" width="166" height="143" viewBox="0 0 166 143"><defs><style>.cls-1{fill:#00aa56;}</style></defs><path class="cls-1" d="M140.25,38.03c-4.52,2.68-10.78,2.33-15.75,.44-.52-.68-1.06-1.33-1.62-1.95,.95-.3,1.89-.61,2.75-.89,2.88-.93,1.38-6.47-.65-7.53-3.1-1.63-6.71-1.88-10.38-1.74,18.88-7.44,28.17-11.58,27.88-12.42-.35-1.01-14.55,2.76-42.59,11.29,5.96-15.47,7-18.88,6.77-18.97-.27-.11-2.92,4.25-6.89,7.37-.29,.23-.52,.39-.82,.38-3.06-.14-3.59-17.94-5.08-17.99-1.23-.03-2.73,11.97-4.42,32.83-.04,.01-.09,.02-.13,.03-.04-.24-.07-.39-.11-.33,0-.27,0-.55,0-.82,.02-2.68-3.1-6.93-4.14-2.34-.24,1.07-.2,2.17-.04,3.25,0,.49,0,.99,0,1.48-.32,.1-.65,.18-.97,.29-.17-.21-.34-.43-.49-.68,0,0-.83-1.24-1.39-2.65-.94-2.37,3.13-23.65,4-23.37,.63,.2-1.88,11.18-6.22,21.05-.6,1.37-1.16,2.54-1.6,3.43l-.86,.86c-1.14,.38-1.41,2.46-1,4.35-.21,.1-.42,.18-.62,.28,2.29-16.48,3.16-24.76,2.63-24.85-.56-.1-2.68,8.84-6.34,26.81-.53,.3-1.05,.63-1.57,.95-2.42-1.9-5.62-4.67-8.97-8.4-10.43-11.62-12.98-22.23-13.82-21.91-.99,.38,1.64,15.41,12.32,28.25l.11,.13c-2.96-2.22-6.03-4.27-9.67-5.26-1.23-.33-1.89,1.11-1.99,2.1-.25,2.33-.21,4.77,.05,7.24-.46-.05-1.8-.21-2.26-.26-14.12-1.64-16.34-1.96-16.47-1.5-.23,.83,6.77,2.67,16.58,8.72,1.75,1.08,3.17,2.04,4.18,2.74-.35,.46-.5,1.27-.54,2.16-2.46-1.55-2.85,2.5-2.02,5.11-.35,.29-.71,.54-1.09,.76-8.96,5.2-25.42-8.05-29.91-11.81,13.7,5.66,17.15,10.82,17.43,14.73,.17,2.41-2.06,6.14,.65,7.53,2.96,1.52,5.91,3.1,8.8,4.78-.33,1.62-.58,3.27-.71,4.93-23.84-1.11-28.71-1.3-28.71-1.27,0,.07,17.33-1.43,26.46,8.82,.68,.77,1.17,1.43,1.44,1.81-3.18,.47-6.35,1.03-9.45,1.92-2.86,.82-1.56,7.37,1.2,7.58,3.59,.28,7.19,1.03,10.65,2.15-20.06,3.86-25.26,5.34-25.18,5.87,.12,.78,11.51-1.84,24.06,3.38,2.34,.98,4.22,2.02,5.58,2.84-19.75,4.02-24.63,5.77-24.52,6.58,.18,1.26,12.62,.01,23.17,2.84,2.3,.62,3.41,1.16,5.74,1.28,3.23,.18,6.53-.16,9.67,.83,.19,.06,.71,.34,1.09,.5-.07,.47-.19,1.08-.36,1.79-2.73,11.33-13.37,18.68-13.72,18.33-.39-.39,10.01-12.7,13.96-10.83,1.11,.53,.99,2.93,2.38,2.48,3.09-1.01,6.08-2.4,8.76-4.24,.3,4.95,2.5,9.15,5.61,10.03,4.16,1.18,9.3-3.74,11.57-7.2,1.19-1.81,1.5-3.1,2.05-3.04,.96,.1,1.75,4.15,1.73,17.92-.63-1.72-7.51-20.88-1.43-25,.46-.31,1.01-.55,1.67-.67,3.57,.89,7.01,3,10.14,4.76,1.37,.77,1.97-1.84,2.02-2.57,.12-1.68-.38-3.4-1.57-4.6-.75-.76-1.4-1.61-1.99-2.49,.8-1.2,1.59-1.8,2.37-1.78,2.36,.05,4.59,5.72,6.69,17.01-1.03-12.48-.45-16.39,.66-16.63,.35-.08,.67,.26,1.12,.04,1.55-.79,.33-5.86-.17-6.68-.19-.31-.42-.63-.67-.95,.55-.62,1.1-1.25,1.63-1.89,1.52,.31,3.05,.39,4.62-.13,1-.33,1.39-1.22,1.48-2.25,.71,8.32,1.21,10.59,1.56,10.58,.44-.01,.22-3.54,2.85-6.57,0,0,.64-.74,1.31-1.25,4.41-3.36,15.98,3.26,16.31,2.7,.21-.35-3.9-3.39-20.59-13.99,.73-1.28,1.42-2.58,2.06-3.89,.94,.35,2.12,.76,3.5,1.17,13.68,4.08,25.26,2.02,25.27,1.36,0-.76-15.11,1.41-24.32-8.01-.7-.72-1.21-1.34-1.49-1.69,.15-.44,.28-.89,.41-1.34,1.86,.23,3.72,.65,5.57,.89,.48,.06,.86-.02,1.16-.2,1.5-.93-1.8-5.37-.71-6.97,.73-1.07,3.52-1.2,11.69,1.97-5.24-3.03-9.64-6.09-9.09-7.68,1.04-3.01,19.09,1.06,19.32,0,.14-.63-6.09-2.78-25.45-7.91v-.04c21.03,1.28,25.38,.88,25.45,.28,.11-.98-11.14-1.44-16.72-9.48-.85-1.23-2.79-4.01-1.89-6.2,1.34-3.26,8.55-4.1,18.61-2.24-13.8,1.49-17.72,1.8-17.74,1.66-.01-.09,1.29-.48,2.38-1.13,2.23-1.32,.72-8.44-2.23-7.14Z"/></svg>