<?xml version="1.0" encoding="UTF-8"?><svg id="Layer_1" xmlns="http://www.w3.org/2000/svg" width="137" height="171" viewBox="0 0 137 171"><defs><style>.cls-1{fill:#6a98ff;}</style></defs><path class="cls-1" d="M113.61,48.79c5.28-7.18,7.44-11.26,6.48-12.22-1.28-1.28-8.07,2.92-20.37,12.61-.45-.6-.93-1.17-1.43-1.72,.84-.26,1.67-.54,2.42-.78,2.02-.65-.19-4.88-.57-6.64-.69-3.22,1.27-8.41,13.18-17.01-7.87,3.54-16.07,7.01-24.61,10.38-3.6,1.42-7.17,2.78-10.7,4.1,.84-1.67,1.54-3.42,1.95-5.3,.22-1.01-.98-6.3-2.78-4.59-2.35,2.23-3.84,5.3-5.46,8.06-.65,1.1-1.67,3.39-2.92,5.02-.04,0-.08,.02-.12,.02-.03-.21-.06-.34-.1-.29,0-.24,0-.48,0-.73,.01-2.36-2.73-6.11-3.65-2.06-.21,.94-.18,1.91-.04,2.87,0,.43,0,.87,0,1.3-.28,.09-.57,.16-.85,.26-.09-.12-.25-.34-.43-.6-6.99-10.14-3.41-25.23-2.21-25.2,1.43,.03,2.06,21.95,.6,22.16-.39,.06-.85-1.41-1.57-1.34-.83,.08-1.39,1.55-1.42,3.03l-.76,.76c-5.14-17.99-7.85-26.94-8.14-26.87-.31,.08,2.11,10.32,7.26,30.7-.18,.09-.37,.16-.55,.24-8.79-17.07-12.95-24.43-13.48-24.17-.53,.25,2.53,8.18,10.2,25.9-.47,.27-.92,.56-1.39,.84-1.95-1.89-4.64-4.45-7.91-7.41-9.87-8.94-20.71-17.63-21.21-17.07-.43,.48,7.06,7.29,19.9,22.66l.1,.12c-2.61-1.96-5.32-3.77-8.53-4.64-1.09-.3-1.67,.98-1.76,1.85-.22,2.05-.19,4.2,.04,6.38-.66-.09-1.32-.18-1.99-.23-.32-.02-.54,.1-.57,.1-1.62,.4-12.36-14.57-11.7-14.97,.61-.36,9.01,12.58,16.05,23.65-.31,.4-.44,1.12-.47,1.91-2.17-1.36-2.51,2.2-1.78,4.51-16.84-8.52-24.89-12.36-25.08-12.01-.19,.36,7.45,4.91,23.85,14.15-3.6-.18-7.19,.04-10.74,1.1-2.56,.77-1.19,5.73,.57,6.64,2.61,1.34,5.22,2.73,7.76,4.21-12.58-3.04-18.98-4.22-19.18-3.54-.21,.7,5.97,3.33,18.55,7.89-.71,.23-1.41,.53-2.09,.95-1.74,1.07-.7,4.45,.1,5.71,.38,.6,.81,1.12,1.27,1.59-2.81,.42-5.6,.91-8.34,1.7-2.52,.72-1.38,6.5,1.06,6.69,3.16,.25,6.34,.91,9.4,1.9-19.43,1.55-24.48,2.41-24.46,2.92,.03,.74,10.91-.34,23.47,5.24,2.04,.91,3.71,1.81,4.92,2.5-.97,.55-1.87,1.22-2.57,2.26-1.33,1.97,1.02,4.32,1.39,6.04,1.48,6.88-19.75,18.84-20.44,17.8-.75-1.13,20.95-21.28,34.02-15.94,.44,.18,.78,.35,.96,.45-.14,.59-.24,1.27-.32,1.58-.23,.95-.35,1.89-.35,2.82-.01,1.94,.47,3.44,.57,3.8,1.29,4.37-10.09,25.32-10.06,25.35,.02,.01,3.33-4.44,19.88-26.9,5.88-1.09,13.65-1.75,16.23,2.08,5.54,8.22-15.78,32.96-18.05,31.59-1.14-.69,1.49-8.6,17.56-39.57,1-.33,1.99-.7,2.96-1.12,3.15,.78,6.18,2.65,8.95,4.19,1.21,.68,1.74-1.62,1.78-2.27,.11-1.48-.34-3-1.39-4.06-.66-.67-1.23-1.42-1.75-2.2,1.41-1,2.79-2.09,4.11-3.26,1.55,.72,3.05,1.48,4.46,2.02,2.76,1.06,1.36-5.01,.84-5.86-.17-.28-.37-.56-.59-.84,8.17,15.9,12.41,23.77,12.71,23.63,.31-.15-3.45-8.58-11.27-25.29,1.34,.27,2.69,.34,4.08-.11,.34-.11,.53-.29,.57-.31,1.06-.66,6.58,1.84,22.42,12.17-10.57-6.32-18.99-11.26-19.15-11.01-.05,.08,.66,.8,1.35,.7,.69-.1,1.08-.97,1.15-1.1,1.36-2.61,25.62-6.02,25.67-6.65,.02-.28-4.86-1.05-29.44-3.31,.64-1.13,1.25-2.28,1.82-3.43,1.03,.35,2.06,.69,3.09,1.03,2.7,.9,1.55-4.91,.84-5.86-.36-.47-.82-.97-1.31-1.49,.13-.39,.24-.79,.37-1.18,1.17-.11,3.04-.12,4.92,.78,4.97,2.39,5.72,9.09,6.19,8.95,.53-.16,.12-8.69-5.79-15.28-.59-.66-1.14-1.19-1.58-1.59,1.23-1.21,2.64-2.23,3.87-3.44,1.41-1.39,1.18-5.78-1.02-6.45-1.42-.43-2.91-.38-4.38-.53v-.04c18.98,8.07,24.44,9.82,24.7,9.27,.49-1.03-16.82-10.75-17.01-17.39-.02-.72,.07-4.79-1.67-5.46-.06-.02-.13-.04-.19-.06,.32-.16,.64-.3,.96-.45,.73-.28,1.44-.6,2.1-.99,1.97-1.16,.63-7.44-1.96-6.3Z"/></svg>