<?xml version="1.0" encoding="UTF-8"?><svg id="Layer_1" xmlns="http://www.w3.org/2000/svg" width="777.47" height="518.45" viewBox="0 0 777.47 518.45"><defs><style>.cls-1{fill:#fff755;}.cls-2{fill:#00aa5f;}.cls-3{fill:#bf004b;}.cls-4{fill:#c500d4;}.cls-5{fill:#8a0088;}.cls-6{opacity:.85;stroke:#fff;stroke-width:5px;}.cls-6,.cls-7{stroke-miterlimit:10;}.cls-8{fill:#9e00f4;}.cls-9{fill:#1b8a00;}.cls-10{fill:#ff1f5e;}.cls-11{fill:#e3ff4a;}.cls-7{fill:#fff;stroke:#000;stroke-width:2px;}.cls-12{fill:#f40037;}</style></defs><path class="cls-2" d="M481.27,61.94c.57-7.25,6.3-11.22,13.92-11.8,.27-.02,.54-.02,.83-.01,2.16-.78,4.26-1.38,6.07-1.84,.18-.05,.37-.09,.55-.14,.88-.56,1.76-1.11,2.63-1.67,.53-1.69,.83-3.49,1.68-5.04,1.43-2.62,3.87-4.16,6.77-4.76,1.73-.36,3.52-.31,5.26-.14,.59,.06,1.05,.14,1.4,.21,.73-.48,1.46-.96,2.18-1.44,.04-.1,.08-.19,.13-.3,1.18-2.7,2.03-4.43,4.19-5.82,1.54-2.17,3.69-3.59,6.83-4.23,1.5-.31,3.14-.31,4.64-.72,1.2-.89,2.39-1.79,3.58-2.7,.75-1.14,1.34-2.43,2.2-3.44,.23-.27,.46-.51,.7-.74-.09,0-.17,0-.26,0-1.78-.03-3.56-1.07-4.45-2.61-10.47,5.66-21.28,10.74-31.41,17.02-5.48,3.4-10.47-5.27-5-8.66,12.2-7.57,25.39-13.36,37.79-20.59,.05-.13,.09-.27,.13-.4-.32-.1-.65-.19-.97-.28-2.49,.56-4.99,1.09-7.5,1.51-2.32,.39-4.13-.68-5.2-2.22-.58,.1-1.17,.22-1.75,.36-1.52,.37-3.08-.1-4.3-1.01-1.05,.99-2,2.1-2.86,3.06-3.55,3.96-6.72,7.99-12.08,9.45-2.92,.79-5.85,.08-8.74,.67-3.62,.73-5.86,3.98-8.63,6.16-3.86,3.04-8.09,3.63-12.54,2.52-22.48,12.01-44.89,24.15-66.85,37.11-12.37,7.3-24.62,14.82-36.78,22.48-1.9,2.17-3.81,4.33-5.77,6.45-1.64,1.78-3.89,1.77-5.68,.83-6.92,4.43-13.82,8.9-20.69,13.42-24.43,13.13-48.83,26.18-73.6,38.68-44.07,22.25-87.85,45.1-132.15,66.89,2.26-1.38,4.52-2.77,6.78-4.14,21.83-13.28,43.65-26.59,65.41-39.99,32.46-19.98,64.84-40.1,97.02-60.53,25.35-16.1,50.67-32.29,75.53-49.14,13.42-17.1,27.69-33.52,41.75-50.11-4.56,2.94-9.2,5.75-13.93,8.39-2.94,5.34-5.74,10.78-8.99,15.81-3.02,4.67-10.67,1.74-9.14-3.82,.36-1.31,.75-2.62,1.15-3.93-2.57,1.05-5.22,1.95-7.95,2.71-10.61,2.93-21.63,4.02-32.18,7.19-5.29,1.59-10.69,3.5-15.25,6.68-4.13,2.88-7.75,6.42-11.92,9.26-9.49,6.45-19.8,6.11-30.66,7.38-10.55,1.24-18.24,8.15-26.96,13.49-6.98,4.27-14.86,6.77-22.54,9.46-4.93,1.73-7.06,2.34-9.94,6.9-2.82,4.46-4.98,9.43-8.62,13.34-7.72,8.31-18.13,7.9-28.17,10.84-10.92,3.2-18.78,11.35-28.92,15.97-8.42,3.84-19.48,2.08-25.28,10.33-1.69,2.41-4.44,2.64-6.56,1.68-11.48,7.14-22.83,14.48-33.99,22.09-21.83,14.88-42.88,30.96-62.47,48.68,.96-.06,1.95,.16,2.82,.57,.36,.17,.9,.53,1.38,.97,.07-.04,.14-.07,.21-.11,10.04-5.46,18.46-13.62,26.79-21.33,9.22-8.52,18.3-17.18,28.15-24.99,4.99-3.96,12.08,3.11,7.04,7.11-9.85,7.81-18.93,16.47-28.15,24.99-7.96,7.36-16.06,15.15-25.33,20.86-10.11,6.23-21.61,9.85-31.46,16-.05,1.5,.07,2.98,.35,4.36,.17,.83,.51,1.79,.97,2.69,.71,.18,1.39,.49,1.93,.88,.73,.53,1.45,1.5,1.39,2.36,.99,.25,2.09-.03,3.24-1.17,41.72-41.25,91.3-73.58,141.98-102.68,52.39-30.08,105.95-58.37,161.22-82.81,13.79-6.1,27.67-12,41.6-17.77-22.05,14.9-44.46,29.28-66.91,43.55-31.5,20.03-63.2,39.76-94.99,59.34-22.41,13.81-44.88,27.53-67.37,41.21-11.17,6.8-22.31,13.65-33.47,20.47-29.27,17.9-58.24,36.54-88.28,53.13-1.21,.84-2.42,1.68-3.65,2.5-4.66,3.09-11.01,4.73-14.17,9.54-.48,.73-1.43,1.02-2.49,1.01-.51,.44-1.03,.87-1.52,1.33-2.21,2.03-3.39,5.19-3.8,8.35,8.85-7.4,17.72-14.69,28.75-18.91,6.03-2.3,8.6,7.37,2.64,9.65-6.13,2.34-11.61,5.84-16.81,9.8,1.84-1.2,3.67-2.42,5.5-3.64,2.5-1.67,9.44,1.86,6.05,4.13-4.42,2.95-8.83,5.91-13.45,8.51,31.23-12.4,61.93-26.04,92.3-40.41-18.87,10.41-37.52,21.21-55.91,32.45-1.89,1.15-3.21,2.88-4.08,4.85,1.87-.71,3.89-1.1,5.9-1.18,1.68-.07,4.25,.54,5.06,2.25,.76,1.61-.68,2.74-2.24,2.8-4.52,.18-8.35,2.71-9.34,7.28-.04,.18-.11,.33-.18,.47,.14,.51,.3,1.02,.49,1.52,2.1-.77,4.13-1.67,6.1-2.78,1.64-.93,4.03-.44,5.51,.58,.59,.41,1.15,1.09,1.33,1.78,17.69-8.8,35.32-17.71,52.88-26.76-4.36,4.87-6.78,10.36-5.66,17.8,.36,2.36,2.72,7.4,6.02,5.71,38.33-19.51,76.91-38.44,114.78-58.83,38.3-20.62,76.39-41.66,114.04-63.45,18.97-10.98,39.34-20.59,55.95-35.12,2.48-2.17,4.45-9.74,3.69-15.08,15.28-10.47,30.57-20.94,45.81-31.46,13-8.98,25.82-18.28,38.94-27.09ZM192.02,228.67c7.17-5.16,14.36-10.32,21.55-15.46,6.85-3.74,13.69-7.49,20.53-11.24,15.37-7.1,30.77-14.1,46.18-21.12-29.23,16.27-58.58,32.36-88.25,47.82ZM433.8,67.82c10.99-6.17,22.07-12.2,33.18-18.17-7.37,5.12-14.69,10.31-22.07,15.41-3.65,2.52-7.3,5.03-10.96,7.55,.09-1.59,.06-3.26-.15-4.79Z"/><path class="cls-11" d="M512.23,77.88c-.84,.11-1.81,.02-2.71-.2-.57,.35-1.14,.7-1.71,1.05,1.6-.05,3.22-.08,4.42-.85Z"/><path class="cls-11" d="M583.61,44.73c-.88-.6-3,.33-3.84,.61-2.53,.84-6.13,2.41-7.4,4.94-1.41,2.8-9.28,1.84-7.71-1.28,2.81-5.6,11.71-9.45,18.71-9.19-.27-1.46-.64-2.91-1.13-4.37-.59-.11-1.24-.1-1.97,.04-9.68,1.94-17.95,8.68-25.82,14.26-5.92,4.2-12.12,8.03-18.36,11.78,.5,.67,.5,1.59-.13,2.29-2.61,2.92-6.03,3.54-9.68,4.37-4.95,1.13-3.8,4.31-4.75,8.39-2.27,9.69-16.19,5.25-22.67,9.32-.84,.53-2.14,.62-3.39,.42-13.17,8.11-26.33,16.25-39.4,24.52-.86,.54-1.7,1.1-2.55,1.64,1.74-6.26,1.45-16.69-5.37-15.18-8.52,1.9-16.18,7.64-23.75,12,.53-5.8-.97-11.59-6.17-10.4-18.92,4.34-35.69,15.35-52.33,24.88-18.92,10.84-38.5,20.57-57.64,31.03-40.12,21.91-79.82,44.57-119.77,66.78-7.65,4.25-15.32,8.48-22.99,12.69-1.05-1.35-2.52-2.02-4.44-1.57-6.21,1.48-11.35,5.02-16.48,8.69-5.43,3.88-10.87,7.74-16.29,11.63-2.39,1.71-4.76,3.43-7.14,5.15-.47,.25-.93,.5-1.39,.74-1,.53-1.84,1.26-2.53,2.13-7.67,5.61-15.27,11.32-22.72,17.22-21.88,17.33-42.72,36.41-59.08,59.16-.02,.02-.03,.05-.04,.07,.37-.41,.75-.82,1.12-1.23,2.08-2.34,9.43,.62,7.12,3.23-3.39,3.82-6.86,7.57-10.38,11.28,.13,.59,.3,1.25,.52,1.9,3.42-3.54,6.98-6.93,10.56-10.3,4.68-4.41,11.74,2.69,7.04,7.11-1.92,1.81-3.84,3.62-5.73,5.46,1.62-.45,3.21-.98,4.79-1.56-.67-.9-.97-2.08,.28-2.73,4.46-2.28,11.54-5.91,8.93-12-1.64-3.8,6.12-3.3,7.3-.55,1.1,2.56,1.19,4.81,.58,6.79,2.72-1.63,5.41-3.32,8.07-5.02,12.19-7.75,24.56-15.08,37.15-22.18,26.81-15.11,53.92-29.9,79.06-47.72-1.04,6.22,.4,13.45,6.12,12.58,11.87-1.81,22.52-8.82,32.21-15.53,9.63-6.67,18.66-14.14,28.09-21.09,.02,.59,.07,1.15,.13,1.65,.33,2.49,2.2,9.14,6.18,7.05,43.25-22.65,83.86-49.9,124.26-77.19,9.37-6.33,18.78-12.6,28.2-18.82,14.68-7.31,29.19-14.94,43.76-22.5,20.68-10.74,41.63-20.98,61.71-32.81,1.63-.96,3.26-1.94,4.88-2.92-4.31-.3-7.01-6.73-2.28-9.28,10.73-5.78,17.92-15.77,27.15-23.43,6.59-5.47,13.67-8.83,21.4-9.81-.25-1.03,.08-2.12,1.45-3.17,2.56-1.97,6.58-1.57,8.36-4.51,.09-.15,.19-.35,.28-.57,.17-1.53,.23-3.07,.2-4.61-.09-.11-.18-.2-.29-.28ZM146.05,272.58c.04,1.03,.22,2.33,.56,3.59-21.91,12.65-44.31,24.63-65.62,38.25-2.97,1.9-6.03,3.96-9.17,6.01,8.51-7.96,17.48-15.45,26.57-22.66,8.18-6.49,16.55-12.74,24.99-18.89,7.81-4.13,15.59-8.3,23.36-12.49-.57,2.01-.77,4.16-.68,6.19Z"/><path class="cls-8" d="M481.46,84.52c-.48-.63-.74-1.26-.89-2.02,0-.03,0-.06-.02-.09-1.27,.51-2.69,.72-4.03,.59-.73-.07-1.43-.24-2.11-.51-.27-.1-.47-.18-.64-.25-1.93,.15-4.11-.87-4.56-2.09-21.86,6.88-44.27,12.57-66.95,16.3,2.88-2.24,5.71-4.53,8.49-6.9,5.15-4.39,5.33-25.5-3.87-19.51-9.11,5.94-18.47,11.39-28.01,16.45,1.09-1.74,2.07-4.35,2.61-7.09-2.88,3.38-5.8,6.71-8.81,9.97-3.83,4.15-11-1.4-7.83-6.08,3.72-5.51,7.58-10.9,11.53-16.22-8.63-1.34-17.33-2.6-26.09-2.35-9.39,.27-18.16,2.61-27.02,5.57-18.85,6.29-37.1,14.2-55.63,21.34-37.76,14.57-76.06,27.71-113.88,42.12-2.41,.92-4.83,1.85-7.24,2.78-.73,.54-1.54,.83-2.37,.92-11.74,4.56-23.42,9.28-35.02,14.17,.76,1.67-.84,3.52-4.02,2.67h0c.67,.7,1.03,1.6,.82,2.72-.5,2.8-5,4.35-7.16,5.53-.23,.13-.5,.21-.79,.26-1.13,1.69-2.43,2.98-4.41,3.91-2.47,1.16-4.35,1.29-5.18,4.22-.34,1.2-1.66,1.65-3.12,1.56-.01,2.17,.28,4.23,.92,5.81,5.81-5.33,11.69-10.58,17.88-15.48,4.99-3.96,12.08,3.11,7.04,7.11-9.85,7.81-18.93,16.47-28.15,24.99-7.96,7.36-16.06,15.15-25.33,20.86-13.46,8.29-29.36,11.96-40.58,23.13-1.6,2.52-2.91,5.18-3.76,7.95,1.23,.1,2.36,.47,3.47-.2,1.34-.82,2.18-2.52,3.09-3.76,1.12-1.54,2.38-2.86,4.06-3.78,1.64-.89,4.04-.48,5.51,.58,1.11,.81,2.21,2.63,.54,3.54-2.51,1.37-3.67,4.14-5.58,6.19,3.08-2.1,6.22-4.11,9.7-5.61,1.73-.75,3.96-.59,5.51,.58,.98,.75,2.34,2.77,.54,3.54-5.83,2.52-10.7,6.39-15.96,9.88-2.9,1.92-6.45,3.28-9.48,5.19,1.04,1.34,2.58,2.33,4.28,1.51,16.44-7.91,32.75-16.06,48.98-24.38-2.22,3.36-2.62,8.81-1.85,12.54,.51,2.45,2.63,7.37,6.02,5.71,15.73-7.66,31.72-14.72,47.85-21.46-8.61,6.3-17.23,12.59-26.05,18.6-4.8,3.28-6.13,23.26,2.37,20.46,3.64-1.2,7.1-3.59,10.4-5.48,5.5-3.16,10.95-6.42,16.39-9.68,10.54-6.34,21.05-12.71,31.68-18.91,35.11-20.51,70.1-41.21,105.03-62.02,10.98-5,21.86-10.23,32.59-15.79,19.36-10.03,38.13-21.17,56.02-33.64,4.78-2.56,9.53-5.18,14.24-7.88,40.26-2.24,80.33-11.82,118.34-24.56,3.28-1.1,5.11-6.14,5.38-11.09-1.93-.21-3.79-.97-4.9-2.43ZM78.96,212.64c-5.04,2.62-10.1,5.22-15.16,7.81,9.9-7.07,20.32-14.12,30.34-20.64,4.8-.84,9.59-1.76,14.36-2.73-9.82,5.24-19.66,10.44-29.54,15.57Zm149.4-41.76c-2.73,1.45-5.46,2.89-8.19,4.33-23.49,9.61-47.23,18.67-70.75,27.99,14.63-11.46,30.93-20.88,47.76-29.46,6.98-2.1,13.95-4.21,20.92-6.31,12.88-3.89,25.76-7.77,38.61-11.76-9.45,5.08-18.88,10.18-28.35,15.21Zm103.45-77.56c-7.38,2.96-14.86,5.62-22.39,8.18-.26-1.19-.74-2.73-1.45-4,1.88-.71,3.76-1.41,5.65-2.1,9.97-3.64,20.35-7.84,31.03-8.63,.79-.06,1.57-.08,2.36-.11-4.98,2.43-10.09,4.61-15.2,6.66Z"/><path class="cls-3" d="M572.53,101.37c-16.69,4.02-32.93,9.49-48.89,15.73,0-.26,0-.52-.02-.78-.13-3.01-1.74-10.19-6.33-8.39-28.73,11.24-55.66,26.45-82.3,41.9-4.49,2.61-9,5.17-13.51,7.75-.94-1.03-2.13-1.49-3.59-.62-12.66,7.56-25.26,15.23-37.83,22.94-6.22,2.66-12.44,5.33-18.66,8.02,13.88-11.12,27.68-22.34,41.38-33.68,23.57-19.5,46.88-39.31,69.99-59.36,3.09-2.68,4.1-7.98,3.96-11.89-.07,0-.14,0-.21,0-.73-.07-1.43-.24-2.11-.51-.27-.1-.47-.18-.64-.25-3.17,.24-7.03-2.65-2.79-4.43,1.43-.6,2.96-.88,4.52-.66-.73-1.71-1.85-3.06-3.52-2.95-9.96,.66-18.84,4.42-26.09,11.37-1.83,1.76-3.37,3.55-5.41,5.04-2.57,1.88-5.45,3.44-8.14,5.14-5.71,3.59-11.43,7.15-17.17,10.69-22.11,13.64-44.46,26.87-66.91,39.92-22.06,12.83-44.34,25.27-66.83,37.33-11.24,6.03-22.54,11.96-33.89,17.8-4.61,2.37-9.34,4.63-14.04,6.93,42.58-42.87,86.12-84.76,128.91-127.41,3.53-3.08,7.04-6.17,10.55-9.28,16.78-23.14,35.61-44.64,54.09-66.44-4.56,2.94-9.2,5.75-13.93,8.39-2.94,5.34-5.74,10.78-8.99,15.81-3.02,4.67-10.67,1.74-9.14-3.82,.12-.43,.26-.87,.38-1.3l-.15,.15c-12.52,12.77-25.16,25.41-37.87,37.99-47.45,41.33-97.07,80.34-144.81,121.19-24.07,20.6-47.69,41.72-70.36,63.85-3.96,3.87-7.16,22.17,2.37,20.46,3.33-.6,6.63-1.29,9.92-2.06-24.97,26.11-49.66,52.49-73.95,79.23-1.04,1.15-1.88,2.47-2.51,3.9,3.54-2.79,7.34-5.27,11.16-7.51,2.59-1.52,9.52,2.09,6.05,4.13-6.66,3.91-13.24,8.48-18.32,14.35,.19,.85,.59,1.89,1.14,2.86,1.46-2.17,3.05-4.31,5.01-6.04,1.66-1.47,3.48-2.38,5.77-2.13,2.78,.3,4.98,2.01,5.61,4.73,.52,2.24-2.75,2.5-5.22,1.55-.42,.44-.87,.94-1.22,1.36-.4,.48-.78,.96-1.16,1.46,.84,.63,1.87,.83,3.12,.26,3.32-1.51,6.61-3.07,9.92-4.6,16.74-20.92,38.39-36.3,64.97-43.62,4.81-1.32,8.43,4.88,4.84,8.38-.74,.73-1.51,1.42-2.28,2.1,.53,.31,.98,.72,1.35,1.21,2.76-.79,5.52-1.59,8.2-2.6,10.27-3.85,16.53-10.39,23.23-18.81,6.11-7.68,13.03-15.99,23.18-17.82,9.74-1.76,20.04,.89,27.64-6.88,3.68-3.76,6.82-8.01,11.55-10.58,4.2-2.28,8.96-2.19,13.59-1.63,5.31,.64,10.45,1.48,15.08-1.84,3.43-2.46,6.09-5.9,9.22-8.7,6.71-5.99,15.38-9.89,24.47-8.94,1.01,.11,2.05,.27,3.1,.44,6-2.96,12-5.9,18-8.84,.4-.47,.81-.94,1.21-1.39,7-7.76,15.09-12.12,25.35-14.16,2.45-.49,4.95-.8,7.45-1.08,29.98-14.65,59.93-29.37,89.61-44.62,.24-.61,.48-1.22,.75-1.82,4-9.01,11.66-12.52,21.13-13.19,2.33-.16,4.79-.09,7.23-.18,6.7-3.56,13.37-7.16,20.03-10.81,5.78-5.03,11.42-8.48,18.53-10.28,9.56-5.39,19.07-10.89,28.51-16.5-4.44-1.13-9.06-2.49-12.49-5.09-3.1-2.35-3.28-6.35,.03-8.64,5.99-4.15,15.54-9.2,22.13-3.26,.11,.1,.21,.21,.31,.31,.46-.6,.92-1.21,1.35-1.82,.45-.63,.91-1.27,1.36-1.92-.68-3.17-2.38-6.4-5.96-5.53ZM210.09,208.67c-8.44,8.57-16.86,17.15-25.25,25.77-2.34,.98-4.7,1.9-7.08,2.79,10.64-9.67,21.43-19.18,32.32-28.57Zm133.04-28.76c-16.16,12.79-32.41,25.55-48.82,38.09-31.8,14.92-63.13,30.82-93.51,48.51-21.72,12.65-42.93,26.21-63.33,40.9,16.62-17.6,33.38-35.07,50.26-52.43,6.38-2.77,12.63-5.89,18.7-9.36,4.96-2.83,9.63-6.19,14.64-8.9,5.6-3.03,11.43-5.71,17.11-8.59,11.38-5.78,22.71-11.65,33.98-17.62,37.37-19.78,74.15-40.69,110.45-62.38-13.08,10.69-26.23,21.3-39.48,31.79Z"/><path class="cls-4" d="M369.08,41.41c-1.83-4.38-5.47-4.44-8.2-.86-9.73,12.74-19.79,25.29-31.62,36.18-7.23,6.65-15.44,13.07-24.51,17.35-.84-.62-1.86-.81-3.08-.19-2.79,1.4-5.58,2.8-8.37,4.2-1.8,.41-3.63,.73-5.49,.93-2.26,.24-3.98,1.98-5.17,4.38-17.35,8.56-34.91,16.74-53.16,23.21-22.37,7.93-46.16,11.4-67.38,22.48-18.2,9.51-31.88,23.57-45.02,39.02-10.82,12.72-21.27,26.12-34.48,36.51-6.26,4.93-12.94,8.44-19.92,10.55-.7-.22-1.39-.44-2.08-.66-11.44-3.63-28.37-9.11-35.06,4.15,1.37-.13,2.87,.29,3.91,1.04,1.11,.81,2.21,2.63,.54,3.54-2.52,1.37-3.68,4.15-5.6,6.2,3.09-2.11,6.23-4.11,9.72-5.62,1.73-.75,3.96-.59,5.51,.58,.98,.75,2.34,2.77,.54,3.54-5.02,2.17-9.33,5.34-13.79,8.41,.51,.35,1.08,.64,1.75,.82,11.21,3.03,22.52,3.1,33.23,.18,12.86,4.1,26.04,6.51,39.42,3.19,15.04-3.74,29.75-14.05,40.07-25.42,10.45-11.5,17.23-26.81,29.04-36.93,13.08-11.21,31.53-13.25,46.78-20.37,4.49-2.1,5.97-11.68,4.49-17.42,13.54-6.46,27.18-12.72,40.49-19.64,13.05-6.79,25.79-14.26,37.7-22.91,28.88-9.61,50.48-37.85,68.14-60.98,3.02-3.96,3.51-10.96,1.62-15.47ZM147.67,183.25c-13.01,11.57-24.11,25.25-32.58,40.46-1.76,3.17-2.87,7.03-2.67,10.76-3.87,1.9-7.87,3.44-11.92,4.51-3.19,.84-6.38,1.24-9.56,1.35,9.03-7.91,16.89-17.15,24.65-26.33,11.94-14.12,23.74-28.89,39.51-38.97,3.42-2.19,6.95-4.1,10.53-5.83-6.22,4.32-12.23,8.97-17.96,14.06Z"/><path class="cls-10" d="M502.95,152.79c-18.37,2.98-36.21,2.07-52.01,13.49-12.67,9.15-21.59,23.51-35.77,30.49-3.04,1.5-6.21,2.65-9.44,3.64,.08-.46,.14-.91,.19-1.34,.27-2.59-.03-11.91-4.65-11.55-11.14,.87-22.85-1.9-33.78,.95-14.06,3.66-23.96,17.24-32.37,28.11-9.43,12.19-19.76,26.88-35.98,29.78-7.26,1.3-14.75,.56-22.06,1.34-7.72,.83-14.41,3.08-20.65,7.8-6.48,4.9-11.03,11.59-16.12,17.8-5.03,6.12-10.84,9.74-18.62,11.41h-.02c-.56-.45-1.2-.83-1.93-1.09-16.57-5.9-26.61,20.83-28.8,32.68-.04,.19-.07,.4-.11,.61-5.89-1.44-11.65-2.85-17.74-3.21-11.36-.67-22.41,1.73-32,7.92-9.13,5.9-16.09,14.5-21.8,23.66,.15-.22,.3-.44,.45-.66,1.76-2.54,9.18,.26,7.12,3.23-3.65,5.26-7.11,10.65-10.85,15.85,1.32,2.99,4.08,4.2,6.36,2.68-.81-.62-1.22-1.41-.81-2.23,2.5-5,3.81-10.45,6.72-15.26,1.08-1.79,4.9-1.08,6.6,.54,3.32-3.58,7.08-6.71,11.44-9.01,9.72-5.12,20.5-5.76,31.21-4.13,10.74,1.63,22.67,7.86,32.44-.04,5.87-4.75,8.41-12.66,8.93-19.94,.24-3.36,.17-6.81,0-10.17,.06,1.05,.52-.41,.24-.44,.04-.04,.08-.08,.13-.13,.9,.59,1.98,.82,3.28,.54,7.06-1.52,13.41-4.83,18.56-9.93,4.56-4.52,8.03-9.93,12.25-14.73,2.3-2.62,4.81-4.9,7.56-6.77,.69,2.77,2.16,4.77,4.5,4.8,16.43,.16,33.15-1.68,47.97-9.25,15.84-8.09,27.13-22.08,42.5-30.74,7.79-4.39,16.12-7.73,24.62-10.47,9.24-2.98,18.86-4.74,28.06-7.81,15.95-5.31,25.6-17.31,37.54-28.26,7.93-7.28,16.33-12.59,26.97-14.87,10.09-2.16,20.56-2.23,30.75-3.88,7.22-1.17,8.26-22.9-.87-21.42ZM206.1,316.75c-1.09,.67-2.24,1.09-3.41,1.35,.79-2.68,1.86-5.03,3.67-7.81,.23-.36,.47-.7,.72-1.03-.04,2.14,0,4.3,.17,6.39v.02c-.35,.38-.53,.71-1.14,1.09Zm156.2-102.41c-3.29,1.55-6.52,3.26-9.67,5.12,3.08-2.99,6.42-5.59,10.18-7.46,3.95-1.97,8.2-2.73,12.58-2.95-4.44,1.55-8.82,3.29-13.09,5.29Z"/><path class="cls-10" d="M512.23,77.88c-.99,.13-2.15,0-3.16-.32-.39,.38-.79,.77-1.19,1.17,1.58-.05,3.17-.09,4.35-.85Z"/><path class="cls-10" d="M439.43,186.47c.55,4.01,63.5-1.26,63.45-5.18-.01-.84-3.56-.5-4.8-3.46-1.52-3.63-1.31-7.83-.08-11.59-33.37,14.26-58.93,17.66-58.57,20.23Z"/><path class="cls-10" d="M560.26,86.48c-.42-4.55-1.82-8.77-4.85-11.73-2.78-4.55-6.48-8.42-11.21-11.12-2.66-1.52-5.34-2.34-7.98-2.57-.21-.02-.43,0-.64-.02,.97,.63,1.18,1.87,.39,2.76-2.61,2.92-6.03,3.54-9.68,4.37-4.95,1.13-3.8,4.31-4.75,8.39-1.93,8.27-12.35,6.25-19.39,8.01-9.12,9.66-17.82,20.82-14.39,25.79,3.69,5.36,19.49,.62,29.63-2.42,13.56-4.07,23.65-10.11,29.9-14.45,.29,.56,.56,1.12,.81,1.69-16.4,22.38-24.29,34.46-23.68,36.24-.09,.08-.19,.15-.28,.23-10.22,8.6-17.89,19.1-24.42,30.68-.68,1.21-1.26,2.52-1.7,3.89,9.5-4.06,19.64-9,29.99-15.06,11.01-6.44,21.55-14.39,28.65-28.06,5.25-10.13,6.77-24.26,3.62-36.64Zm-19.74,32.32c-1.79,1.54-3.64,3-5.51,4.44,3.64-3.56,8.19-8.24,13.7-14.06-1.82,3.39-5.09,6.95-8.18,9.62Z"/><path class="cls-3" d="M250.48,406.76c4.81-1.32,8.43,4.88,4.84,8.38-.74,.73-1.51,1.42-2.28,2.11,.53,.31,.98,.72,1.35,1.21,2.76-.79,5.52-1.59,8.2-2.6,10.27-3.85,16.53-10.39,23.23-18.81,6.11-7.68,13.03-15.99,23.18-17.82,9.74-1.76,20.04,.89,27.64-6.88,3.68-3.76,6.82-8.01,11.55-10.58,4.2-2.28,8.96-2.19,13.59-1.63,5.31,.64,10.45,1.48,15.08-1.84,3.43-2.46,6.09-5.9,9.22-8.7,6.71-5.99,15.38-9.89,24.47-8.94,1.01,.11,2.05,.27,3.1,.44,6-2.96,12-5.9,18-8.84,.4-.47,.81-.94,1.21-1.39,7-7.76,15.09-12.12,25.35-14.16,2.45-.49,4.95-.8,7.45-1.08,29.98-14.65,59.93-29.37,89.61-44.62,.24-.61,.48-1.22,.75-1.82,4-9.01,11.66-12.52,21.13-13.19,2.33-.16,4.79-.09,7.23-.18,6.7-3.56,13.37-7.16,20.03-10.81,5.78-5.03,11.42-8.48,18.53-10.28,9.56-5.39,19.07-10.89,28.51-16.5-4.44-1.13-9.06-2.49-12.49-5.09-3.09-2.35-3.28-6.35,.03-8.64,5.99-4.15,15.54-9.2,22.13-3.26,.11,.1,.21,.21,.31,.31,.46-.6,.92-1.21,1.35-1.82,.45-.63,.91-1.27,1.36-1.92-.68-3.17-2.38-6.4-5.96-5.53-16.69,4.02-32.93,9.49-48.89,15.73,0-.26,0-.52-.02-.78-.13-3.01-1.74-10.19-6.33-8.39-28.73,11.24-55.66,26.45-82.3,41.9-4.49,2.61-9,5.17-13.51,7.75-.94-1.03-2.13-1.49-3.59-.62-12.66,7.56-25.26,15.23-37.83,22.94-6.22,2.66-12.44,5.33-18.66,8.02,13.88-11.12,27.68-22.34,41.38-33.68,23.57-19.5,46.88-39.31,69.99-59.36,3.14-2.72,4.13-8.15,3.96-12.08-.11-2.43-1.17-8.86-4.75-8.62-9.96,.66-18.84,4.42-26.09,11.37-1.83,1.76-3.37,3.55-5.41,5.04-2.57,1.88-5.45,3.44-8.14,5.14-5.71,3.59-11.43,7.15-17.17,10.69-22.11,13.64-44.46,26.87-66.91,39.92-22.06,12.83-44.34,25.27-66.83,37.33-11.24,6.03-22.54,11.96-33.89,17.8-4.61,2.37-9.34,4.63-14.04,6.93,42.58-42.87,86.12-84.76,128.91-127.41,3.53-3.08,7.04-6.17,10.55-9.28,16.78-23.14,35.61-44.64,54.09-66.44-4.56,2.94-9.2,5.75-13.93,8.39-2.94,5.34-5.74,10.78-8.99,15.81-3.02,4.67-10.67,1.74-9.14-3.82,.12-.43,.26-.87,.38-1.3l-.15,.15c-12.52,12.77-25.16,25.41-37.87,37.99-47.45,41.33-97.07,80.34-144.81,121.19-24.07,20.6-47.69,41.72-70.36,63.85-3.96,3.87-7.16,22.17,2.37,20.46,3.33-.6,6.63-1.29,9.92-2.06-24.97,26.11-49.66,52.49-73.95,79.23-3.51,3.86-4.7,9.67-3.65,14.75,.62,3.02,3.97,8.66,7.52,4.76,.52-.57,1.05-1.14,1.57-1.71,.96,1.23,2.27,1.9,3.99,1.12,3.32-1.51,6.61-3.07,9.92-4.6,16.74-20.92,38.39-36.3,64.97-43.62Zm45.25-107.2c-8.44,8.57-16.86,17.15-25.25,25.77-2.34,.98-4.7,1.9-7.08,2.79,10.64-9.67,21.43-19.18,32.32-28.57Zm-22.35,46.31c6.38-2.77,12.63-5.89,18.7-9.36,4.96-2.83,9.63-6.19,14.64-8.9,5.6-3.03,11.43-5.71,17.11-8.59,11.38-5.78,22.71-11.65,33.98-17.62,37.37-19.78,74.15-40.69,110.45-62.38-13.08,10.69-26.23,21.3-39.48,31.79-16.16,12.79-32.41,25.55-48.82,38.09-31.8,14.92-63.13,30.82-93.51,48.51-21.72,12.65-42.93,26.21-63.33,40.9,16.62-17.6,33.38-35.07,50.26-52.43Z"/><path class="cls-4" d="M538.33,125.61c-1.83-4.38-5.47-4.44-8.2-.86-9.73,12.74-19.79,25.29-31.62,36.18-7.23,6.65-15.44,13.07-24.51,17.35-.84-.62-1.86-.81-3.08-.19-2.79,1.4-5.58,2.8-8.37,4.2-1.8,.41-3.63,.73-5.49,.93-2.26,.24-3.98,1.98-5.17,4.38-17.35,8.56-34.91,16.74-53.16,23.21-22.37,7.93-46.16,11.4-67.38,22.48-18.2,9.51-31.88,23.57-45.02,39.02-10.82,12.72-21.27,26.12-34.48,36.51-6.26,4.93-12.94,8.44-19.92,10.55-.7-.22-1.39-.44-2.08-.66-11.86-3.76-29.62-9.52-35.76,5.69-1.85,4.58-3.24,15.22,3.28,16.99,11.21,3.03,22.52,3.1,33.23,.18,12.86,4.1,26.04,6.51,39.42,3.19,15.04-3.74,29.75-14.05,40.07-25.42,10.45-11.5,17.23-26.81,29.04-36.93,13.08-11.21,31.53-13.25,46.78-20.37,4.49-2.1,5.97-11.68,4.49-17.42,13.54-6.46,27.18-12.72,40.49-19.64,13.05-6.79,25.79-14.26,37.7-22.91,28.88-9.61,50.48-37.85,68.14-60.98,3.02-3.96,3.51-10.96,1.62-15.47Zm-221.42,141.83c-13.01,11.57-24.11,25.25-32.58,40.46-1.76,3.17-2.87,7.03-2.67,10.76-3.87,1.9-7.87,3.44-11.92,4.51-3.19,.84-6.38,1.24-9.56,1.35,9.03-7.91,16.89-17.15,24.65-26.33,11.94-14.12,23.74-28.89,39.51-38.97,3.42-2.19,6.95-4.1,10.53-5.83-6.22,4.32-12.23,8.97-17.96,14.06Z"/><path class="cls-11" d="M696.39,99.3c-.12-.02-.23-.03-.33-.03-4.01-.23-8.15,2.35-10.56,5.35-1.89,2.34-9.49,.78-6.91-2.42,3.95-4.9,10.75-7.71,17.1-7.71-.24-1.07-.53-2.15-.89-3.22-.59-.11-1.24-.1-1.97,.04-9.68,1.93-17.95,8.68-25.82,14.26-9.84,6.98-20.45,12.94-30.74,19.24-22.6,13.86-45.24,27.68-67.64,41.86-.86,.54-1.7,1.1-2.55,1.64,1.74-6.26,1.45-16.69-5.37-15.18-8.52,1.9-16.18,7.64-23.75,12,.53-5.8-.97-11.59-6.17-10.4-18.92,4.34-35.69,15.35-52.33,24.88-18.92,10.84-38.5,20.57-57.64,31.03-40.12,21.91-79.82,44.57-119.77,66.78-7.65,4.25-15.32,8.48-22.99,12.69-1.05-1.35-2.52-2.02-4.44-1.57-6.21,1.48-11.35,5.02-16.48,8.69-5.43,3.88-10.87,7.74-16.29,11.63-2.39,1.71-4.76,3.43-7.14,5.15-.47,.25-.93,.5-1.39,.74-1,.53-1.84,1.26-2.53,2.13-7.67,5.61-15.27,11.32-22.72,17.22-21.88,17.33-42.72,36.41-59.08,59.16-2.29,3.19-2.95,8.07-2.45,11.83,.26,1.99,1.47,7.64,4.59,7.28,14.09-1.63,26.27-9.19,38.01-16.66,12.19-7.75,24.56-15.08,37.15-22.18,26.81-15.11,53.92-29.9,79.06-47.72-1.04,6.22,.4,13.45,6.12,12.58,11.87-1.81,22.52-8.82,32.21-15.53,9.63-6.67,18.66-14.14,28.09-21.09,.02,.59,.07,1.15,.13,1.65,.33,2.49,2.2,9.14,6.18,7.05,43.25-22.65,83.86-49.9,124.27-77.19,9.37-6.33,18.78-12.6,28.2-18.82,14.68-7.31,29.19-14.94,43.76-22.5,5.51-2.86,11.03-5.69,16.56-8.52-.36-1.29,.23-2.73,2.39-4.01-.51-.19-.96-.46-1.26-.88-1.01-1.41-.16-2.8,1.43-3.28,3.55-1.08,7.57-1.27,11.31-1.4,2.47-.77,4.88-1.79,7.08-3.03,1.89-1.06,2.78-2.37,4.4-3.84,2.55-2.32,5.64-4.27,8.35-6.42,2.11-1.67,4.28-3.45,6.78-4.52,1.66-.71,3.87-1.28,6.22-1.55-1.93-2.16-2.23-5.8,1.05-7.57,10.73-5.78,17.92-15.77,27.15-23.43,5.79-4.8,11.96-7.98,18.62-9.35-.29-.83-.39-1.8-.19-2.93,.97-5.68,8.43-7.71,13.26-8.47,.04-1.15,.02-2.3-.06-3.46Zm-437.79,229.1c.04,1.03,.22,2.33,.56,3.59-21.91,12.65-44.31,24.63-65.62,38.25-2.97,1.9-6.03,3.96-9.17,6.01,8.51-7.96,17.48-15.45,26.57-22.66,8.18-6.49,16.55-12.74,24.99-18.89,7.81-4.13,15.59-8.3,23.36-12.49-.57,2.01-.77,4.16-.68,6.19Z"/><path class="cls-10" d="M592.25,179.41c-.51-.19-.96-.46-1.26-.88-1.01-1.41-.16-2.8,1.43-3.28,3.55-1.08,7.57-1.27,11.31-1.4,2.47-.77,4.88-1.79,7.08-3.03,.83-.47,1.47-.99,2.06-1.54-.07-5.9-2.35-11.33-7.36-10.51-20.6,3.34-40.6,2.33-58.33,15.13-14.2,10.26-24.21,26.36-40.11,34.19-3.41,1.68-6.96,2.97-10.58,4.08,.09-.52,.16-1.03,.21-1.5,.3-2.9-.04-13.35-5.22-12.95-12.49,.97-25.63-2.13-37.88,1.06-15.77,4.11-26.87,19.33-36.3,31.52-10.58,13.66-22.16,30.14-40.35,33.39-8.15,1.45-16.53,.62-24.74,1.51-8.65,.93-16.15,3.46-23.15,8.75-7.26,5.49-12.37,13-18.07,19.96-5.63,6.87-12.16,10.92-20.88,12.79h-.02c-.63-.51-1.34-.93-2.16-1.22-18.59-6.61-29.84,23.35-32.3,36.64-.04,.22-.08,.45-.12,.69-6.61-1.62-13.06-3.2-19.89-3.6-12.74-.75-25.13,1.94-35.89,8.88-11.28,7.29-19.62,18.25-26.36,29.69-2.94,4.99-4.12,11.86-1.82,17.35,1.85,4.42,6.5,5.54,9.2,.96,6.2-10.53,13.8-21.09,24.87-26.92,10.9-5.74,22.99-6.46,35-4.64,12.04,1.83,25.42,8.81,36.38-.05,6.58-5.32,9.43-14.2,10.01-22.36,.27-3.77,.19-7.63,0-11.4,.06,1.18,.58-.46,.27-.49,.05-.05,.09-.09,.15-.14,1.01,.66,2.23,.92,3.68,.61,7.91-1.7,15.04-5.41,20.81-11.13,5.11-5.07,9-11.14,13.74-16.52,2.58-2.93,5.39-5.49,8.48-7.59,.78,3.11,2.42,5.35,5.05,5.38,18.43,.18,37.17-1.88,53.79-10.38,17.76-9.07,30.43-24.76,47.66-34.47,8.74-4.92,18.07-8.67,27.61-11.74,10.37-3.34,21.15-5.32,31.47-8.76,17.89-5.96,28.71-19.41,42.09-31.69,8.89-8.16,18.32-14.12,30.24-16.68,6.07-1.3,12.27-1.93,18.48-2.51-1.22-1.54-1.11-3.51,1.76-5.22Zm-319.61,163.21c-1.22,.75-2.51,1.23-3.83,1.51,.89-3.01,2.09-5.64,4.11-8.76,.26-.4,.53-.79,.8-1.16-.05,2.4,0,4.82,.19,7.17v.02c-.4,.42-.59,.8-1.28,1.22Zm175.16-114.84c-3.69,1.74-7.31,3.66-10.84,5.74,3.46-3.36,7.2-6.27,11.41-8.37,4.43-2.21,9.2-3.06,14.1-3.31-4.98,1.74-9.89,3.69-14.67,5.93Z"/><path class="cls-9" d="M732.26,129.47c-5.42,.59-11.07,2.24-16.11,4.94,.17-.07,.34-.13,.5-.2,3.2-1.34,8.87,2.13,4.04,4.14-5.34,2.23-12.66,2.71-16.81,7.06-1.57,1.65-9.23,1.07-7.31-1.85,.13-.2,.28-.38,.41-.57h0s.02-.02,.03-.03c8.07-11.67,23.6-18.33,37.57-18.46,.64,0,1.44,.04,2.33,.14-.19-2.66-.7-5.32-1.59-7.99-.59-.11-1.24-.1-1.97,.04-9.68,1.94-17.95,8.68-25.82,14.26-9.84,6.98-20.45,12.94-30.74,19.24-2.92,1.79-5.84,3.58-8.77,5.37,.15,.37,.18,.79,.03,1.27-1.39,4.34-4.12,7.54-7.99,9.94-2.3,1.43-4.8,2.22-7.44,2.75-1.95,.39-6.01,.38-7.42,1.98-.89,1-.78,2.93-1.1,4.16-.47,1.81-1.25,3.41-2.55,4.78-2.91,3.06-7.2,4.59-11.1,5.91-3.23,1.09-8.99-2.47-4.04-4.14,4.04-1.36,8.25-2.81,9.74-7.03-9.03,5.59-18.04,11.19-27.01,16.87-.86,.54-1.7,1.1-2.55,1.64,.23-.82,.42-1.7,.57-2.62-1.37,2.47-8.46,1.71-7.54-1.66,.71-2.63,1.39-5.31,1.52-8.05,.05-1-.06-1.86-.2-2.76-1.45,.34-2.87,.78-4.28,1.31-3.8,4.91-3.96,12.94-12.14,12.78-1.34-.03-4-.57-4-2.4s2.61-2.43,4-2.4c-.88-.02,.37-1.25,.83-2.14-2.66,1.62-5.27,3.28-7.88,4.78,.27-2.93,.01-5.86-.97-7.89-.18,.05-.36,.09-.52,.12-1.4,.26-2.67,2.69-3.57,3.82-1.78,2.22-3.99,3.46-6.75,4.1-1.4,.33-4.31-.05-4.92-1.68-.67-1.78,1.44-2.64,2.79-2.95,1.4-.32,2.71-2.93,3.57-3.99,.34-.42,.71-.8,1.09-1.15-17.66,4.77-33.49,15.09-49.21,24.09-18.92,10.84-38.5,20.57-57.64,31.03-40.12,21.91-79.82,44.57-119.77,66.78-7.65,4.25-15.32,8.48-22.99,12.69-1.05-1.35-2.52-2.02-4.44-1.57-6.21,1.48-11.35,5.02-16.48,8.69-5.43,3.88-10.87,7.74-16.29,11.63-2.39,1.71-4.76,3.43-7.14,5.15-.47,.25-.93,.5-1.39,.74-1,.53-1.84,1.26-2.53,2.13-7.67,5.61-15.27,11.32-22.72,17.22-21.88,17.33-42.72,36.41-59.08,59.16-2.29,3.19-2.95,8.07-2.45,11.83,.26,1.99,1.47,7.64,4.59,7.28,14.09-1.63,26.27-9.19,38.01-16.66,12.19-7.75,24.56-15.08,37.15-22.18,26.81-15.11,53.92-29.9,79.06-47.72-1.04,6.22,.4,13.45,6.12,12.58,11.87-1.81,22.52-8.82,32.21-15.53,9.63-6.67,18.66-14.14,28.09-21.09,.02,.59,.07,1.15,.13,1.65,.33,2.49,2.2,9.14,6.18,7.05,43.25-22.65,83.86-49.9,124.26-77.19,9.37-6.33,18.78-12.6,28.2-18.82,14.68-7.31,29.19-14.94,43.76-22.5,20.68-10.74,41.63-20.98,61.71-32.81,1.63-.96,3.26-1.94,4.88-2.92-4.31-.3-7.01-6.73-2.28-9.28,10.73-5.78,17.92-15.77,27.15-23.43,5.38-4.46,11.08-7.53,17.21-9.04,2.05-2.4,4.6-3.97,7.82-5.16,1.48-.55,4.48-1,6.23-2.04,.16-1.05,.29-2.1,.36-3.15-1.33-.39-3.54-.16-4.64-.04Zm-433.14,224.33c.04,1.03,.22,2.33,.56,3.59-21.91,12.65-44.31,24.63-65.62,38.25-2.97,1.9-6.03,3.96-9.17,6.01,8.51-7.96,17.48-15.45,26.57-22.66,8.18-6.49,16.55-12.74,24.99-18.89,7.81-4.13,15.59-8.3,23.36-12.49-.57,2.01-.77,4.16-.68,6.19Z"/><path class="cls-5" d="M678.78,225.47c-1.27,.52-2.92,.3-4.16-.29-10.75,3.24-21.34,6.99-31.8,11.08,0-.26,0-.52-.02-.78-.13-3.01-1.74-10.19-6.33-8.39-28.73,11.24-55.66,26.45-82.3,41.9-4.49,2.61-9,5.17-13.51,7.75-.94-1.03-2.13-1.49-3.59-.62-12.66,7.56-25.26,15.23-37.83,22.94-6.22,2.66-12.44,5.33-18.66,8.02,13.88-11.12,27.68-22.34,41.38-33.68,23.57-19.5,46.88-39.31,69.99-59.36,3.14-2.72,4.13-8.15,3.96-12.08-.11-2.43-1.17-8.86-4.75-8.62-9.96,.66-18.84,4.42-26.09,11.37-1.83,1.76-3.37,3.55-5.41,5.04-2.57,1.88-5.45,3.44-8.14,5.14-5.71,3.59-11.43,7.15-17.17,10.69-22.11,13.64-44.46,26.87-66.91,39.92-22.06,12.83-44.34,25.27-66.83,37.33-11.24,6.03-22.54,11.96-33.89,17.8-4.61,2.37-9.34,4.63-14.04,6.93,42.58-42.87,86.12-84.76,128.91-127.41,3.53-3.08,7.04-6.17,10.55-9.28,16.78-23.14,35.61-44.64,54.09-66.44-4.56,2.94-9.2,5.75-13.93,8.39-2.94,5.34-5.74,10.78-8.99,15.81-3.02,4.67-10.67,1.74-9.14-3.82,.12-.43,.26-.87,.38-1.3l-.15,.15c-12.52,12.77-25.16,25.41-37.87,37.99-47.45,41.33-97.07,80.34-144.81,121.19-24.07,20.6-47.69,41.72-70.36,63.85-3.96,3.87-7.16,22.17,2.37,20.46,3.33-.6,6.63-1.29,9.92-2.06-24.97,26.11-49.66,52.49-73.95,79.23-1.04,1.15-1.88,2.47-2.51,3.9,3.54-2.79,7.34-5.27,11.16-7.51,2.59-1.52,9.52,2.09,6.05,4.13-6.66,3.91-13.24,8.48-18.32,14.35,.19,.85,.59,1.89,1.14,2.86,1.46-2.17,3.05-4.31,5.01-6.04,1.66-1.47,3.48-2.38,5.77-2.13,2.78,.3,4.98,2.01,5.61,4.73,.52,2.24-2.75,2.5-5.22,1.55-.42,.44-.87,.94-1.22,1.36-.4,.48-.78,.96-1.16,1.46,.84,.63,1.87,.83,3.12,.26,3.32-1.51,6.61-3.07,9.92-4.6,16.74-20.92,38.39-36.3,64.97-43.62,4.81-1.32,8.43,4.88,4.84,8.38-.74,.73-1.51,1.42-2.28,2.11,.53,.31,.98,.72,1.35,1.21,2.76-.79,5.52-1.59,8.2-2.6,10.27-3.85,16.53-10.39,23.23-18.81,6.11-7.68,13.03-15.99,23.18-17.82,9.74-1.76,20.04,.89,27.64-6.88,3.68-3.76,6.82-8.01,11.55-10.58,4.2-2.28,8.96-2.19,13.59-1.63,5.31,.64,10.45,1.48,15.08-1.84,3.43-2.46,6.09-5.9,9.22-8.7,6.71-5.99,15.38-9.89,24.47-8.94,1.01,.11,2.05,.27,3.1,.44,6-2.96,12-5.9,18-8.84,.4-.47,.81-.94,1.21-1.39,7-7.76,15.09-12.12,25.35-14.16,2.45-.49,4.95-.8,7.45-1.08,29.98-14.65,59.93-29.37,89.61-44.62,.24-.61,.48-1.22,.75-1.82,4-9.01,11.66-12.52,21.13-13.19,2.33-.16,4.79-.09,7.23-.18,6.7-3.56,13.37-7.16,20.03-10.81,5.78-5.03,11.42-8.48,18.53-10.28,9.56-5.39,19.07-10.89,28.51-16.5-4.44-1.13-9.06-2.49-12.49-5.09-3.09-2.35-3.28-6.35,.03-8.64,5.99-4.15,15.54-9.2,22.13-3.26,.11,.1,.21,.21,.31,.31,.46-.6,.92-1.21,1.35-1.82,.45-.63,.91-1.27,1.36-1.92-.3-1.42-.82-2.85-1.61-3.92-5.89,.53-11.8,1.06-17.29,3.34Zm-349.5,102.35c-8.44,8.57-16.86,17.15-25.25,25.77-2.34,.98-4.7,1.9-7.08,2.79,10.64-9.67,21.43-19.18,32.32-28.57Zm133.04-28.76c-16.16,12.79-32.41,25.55-48.82,38.09-31.8,14.92-63.13,30.82-93.51,48.51-21.72,12.65-42.93,26.21-63.33,40.9,16.62-17.6,33.38-35.07,50.26-52.43,6.38-2.77,12.63-5.89,18.7-9.36,4.96-2.83,9.63-6.19,14.64-8.9,5.6-3.03,11.43-5.71,17.11-8.59,11.38-5.78,22.71-11.65,33.98-17.62,37.37-19.78,74.15-40.69,110.45-62.38-13.08,10.69-26.23,21.3-39.48,31.79Z"/><path class="cls-1" d="M713.65,248.77c-9.88,2.38-19.6,5.28-29.2,8.53-.57,.22-1.16,.42-1.76,.59-6.02,2.07-12,4.29-17.93,6.61,0-.26,0-.52-.02-.78-.13-3.01-1.74-10.19-6.33-8.39-28.73,11.24-55.66,26.45-82.3,41.9-4.49,2.61-9,5.17-13.51,7.75-.94-1.03-2.13-1.49-3.59-.62-12.66,7.56-25.26,15.23-37.83,22.94-6.22,2.66-12.44,5.33-18.66,8.02,13.88-11.12,27.68-22.34,41.38-33.68,23.57-19.5,46.88-39.31,69.99-59.36,3.14-2.72,4.13-8.15,3.96-12.08-.11-2.43-1.17-8.86-4.75-8.62-9.96,.66-18.84,4.42-26.09,11.37-1.83,1.76-3.37,3.55-5.41,5.04-2.57,1.88-5.45,3.44-8.14,5.14-5.71,3.59-11.43,7.15-17.17,10.69-22.11,13.64-44.46,26.87-66.91,39.92-22.06,12.82-44.34,25.27-66.83,37.33-11.24,6.03-22.54,11.96-33.89,17.8-4.61,2.37-9.34,4.63-14.04,6.93,42.58-42.87,86.12-84.76,128.91-127.41,3.53-3.08,7.04-6.17,10.55-9.28,16.78-23.14,35.61-44.64,54.09-66.44-4.56,2.94-9.2,5.75-13.93,8.39-2.94,5.34-5.74,10.78-8.99,15.81-3.02,4.67-10.67,1.74-9.14-3.82,.12-.43,.26-.87,.38-1.3-.05,.05-.1,.1-.15,.15-12.52,12.77-25.16,25.41-37.87,37.99-47.45,41.33-97.07,80.34-144.81,121.19-24.07,20.6-47.69,41.72-70.36,63.85-3.96,3.87-7.16,22.17,2.37,20.46,3.33-.6,6.63-1.29,9.92-2.06-24.97,26.11-49.66,52.49-73.95,79.23-3.51,3.86-4.7,9.67-3.65,14.75,.62,3.02,3.97,8.66,7.52,4.76,.52-.57,1.05-1.14,1.57-1.71,.96,1.23,2.27,1.9,3.99,1.12,3.32-1.51,6.61-3.07,9.92-4.6,16.74-20.92,38.39-36.3,64.97-43.62,4.81-1.32,8.43,4.88,4.84,8.38-.74,.73-1.51,1.42-2.28,2.1,.53,.31,.98,.72,1.35,1.21,2.76-.79,5.52-1.59,8.2-2.6,10.27-3.85,16.53-10.39,23.23-18.81,6.11-7.68,13.03-15.99,23.18-17.82,9.74-1.76,20.04,.89,27.64-6.88,3.68-3.76,6.82-8.01,11.55-10.58,4.2-2.28,8.96-2.19,13.59-1.63,5.31,.64,10.45,1.48,15.08-1.84,3.43-2.46,6.09-5.9,9.22-8.7,6.71-5.99,15.38-9.89,24.47-8.94,1.01,.11,2.05,.27,3.1,.44,6-2.96,12-5.9,18-8.84,.4-.47,.81-.94,1.21-1.39,7-7.76,15.09-12.12,25.35-14.16,2.45-.49,4.95-.8,7.45-1.08,29.98-14.65,59.93-29.37,89.61-44.62,.24-.61,.48-1.22,.75-1.82,4-9.01,11.66-12.52,21.13-13.19,2.33-.16,4.79-.09,7.23-.18,6.7-3.56,13.37-7.16,20.03-10.81,5.78-5.03,11.42-8.48,18.53-10.28,9.56-5.39,19.07-10.89,28.51-16.5-4.44-1.13-9.06-2.49-12.49-5.09-3.09-2.35-3.28-6.35,.03-8.64,5.99-4.15,15.54-9.2,22.13-3.26,.11,.1,.21,.21,.31,.31,.46-.6,.92-1.21,1.35-1.82,.45-.63,.91-1.27,1.36-1.92-.68-3.17-2.38-6.4-5.96-5.53Zm-362.44,107.3c-8.44,8.57-16.86,17.15-25.25,25.77-2.34,.98-4.7,1.9-7.08,2.79,10.64-9.67,21.43-19.18,32.32-28.57Zm133.04-28.76c-16.16,12.79-32.41,25.55-48.82,38.09-31.8,14.92-63.13,30.82-93.51,48.51-21.72,12.65-42.93,26.21-63.33,40.9,16.62-17.6,33.38-35.07,50.26-52.43,6.38-2.77,12.63-5.89,18.7-9.36,4.96-2.83,9.63-6.19,14.64-8.9,5.6-3.03,11.43-5.71,17.11-8.59,11.38-5.78,22.71-11.65,33.98-17.62,37.37-19.78,74.15-40.69,110.45-62.38-13.08,10.69-26.23,21.3-39.48,31.79Z"/><path class="cls-12" d="M756.67,249.72c-16.69,4.02-32.93,9.49-48.89,15.73,0-.26,0-.52-.02-.78-.13-3.01-1.74-10.19-6.33-8.39-28.73,11.24-55.66,26.45-82.3,41.9-4.49,2.61-9,5.17-13.51,7.75-.94-1.03-2.13-1.49-3.59-.62-12.66,7.56-25.26,15.23-37.83,22.94-6.22,2.66-12.44,5.33-18.66,8.02,13.88-11.12,27.68-22.34,41.38-33.68,23.57-19.5,46.88-39.31,69.99-59.36,3.14-2.72,4.13-8.15,3.96-12.08-.03-.76-.16-1.92-.43-3.14-3.04-1.39-4.28-.34-6.73,2.44-1.75,1.99-3.16,4.23-4.86,6.26-3.03,3.61-6.77,5.13-11.35,5.87-4.06,.66-7.38-3.78-2.13-4.63,7.45-1.21,9.38-9.34,15.11-13.38,1.32-.93,2.67-1.54,4.04-1.9-9.32,.94-17.64,4.65-24.49,11.23-1.83,1.76-3.37,3.55-5.41,5.04-2.57,1.88-5.45,3.44-8.14,5.14-5.71,3.59-11.43,7.15-17.17,10.69-22.11,13.64-44.46,26.87-66.91,39.92-22.06,12.83-44.34,25.27-66.83,37.33-11.24,6.03-22.54,11.96-33.89,17.8-4.61,2.37-9.34,4.63-14.04,6.93,42.58-42.87,86.12-84.76,128.91-127.41,3.53-3.08,7.04-6.17,10.55-9.28,16.78-23.14,35.61-44.64,54.09-66.44-4.56,2.94-9.2,5.75-13.93,8.39-2.94,5.34-5.74,10.78-8.99,15.81-3.02,4.67-10.67,1.74-9.14-3.82,.12-.43,.26-.87,.38-1.3l-.15,.15c-12.52,12.77-25.16,25.41-37.87,37.99-47.45,41.33-97.07,80.34-144.81,121.19-24.07,20.6-47.69,41.72-70.36,63.85-3.96,3.87-7.16,22.17,2.37,20.46,3.33-.6,6.63-1.29,9.92-2.06-24.97,26.11-49.66,52.49-73.95,79.23-1.04,1.15-1.88,2.47-2.51,3.9,3.54-2.79,7.34-5.27,11.16-7.51,2.59-1.52,9.52,2.09,6.05,4.13-6.66,3.91-13.24,8.48-18.32,14.35,.19,.85,.59,1.89,1.14,2.86,1.46-2.17,3.05-4.31,5.01-6.04,1.66-1.47,3.48-2.38,5.77-2.13,2.78,.3,4.98,2.01,5.61,4.73,.52,2.24-2.75,2.5-5.22,1.55-.42,.44-.87,.94-1.22,1.36-.4,.48-.78,.96-1.16,1.46,.84,.63,1.87,.83,3.12,.26,3.32-1.51,6.61-3.07,9.92-4.6,16.74-20.92,38.39-36.3,64.97-43.62,4.81-1.32,8.43,4.88,4.84,8.38-.74,.73-1.51,1.42-2.28,2.11,.53,.31,.98,.72,1.35,1.21,2.76-.79,5.52-1.59,8.2-2.6,10.27-3.85,16.53-10.39,23.23-18.81,6.11-7.68,13.03-15.99,23.18-17.82,9.74-1.76,20.04,.89,27.64-6.88,3.68-3.76,6.82-8.01,11.55-10.58,4.2-2.28,8.96-2.19,13.59-1.63,5.31,.64,10.45,1.48,15.08-1.84,3.43-2.46,6.09-5.9,9.22-8.7,6.71-5.99,15.38-9.89,24.47-8.94,1.01,.11,2.05,.27,3.1,.44,6-2.96,12-5.9,18-8.84,.4-.47,.81-.94,1.21-1.39,7-7.76,15.09-12.12,25.35-14.16,2.45-.49,4.95-.8,7.45-1.08,29.98-14.65,59.93-29.37,89.61-44.62,.24-.61,.48-1.22,.75-1.82,4-9.01,11.66-12.52,21.13-13.19,2.33-.16,4.79-.09,7.23-.18,6.7-3.56,13.37-7.16,20.03-10.81,5.78-5.03,11.42-8.48,18.53-10.28,7.98-4.5,15.9-9.09,23.8-13.74-6.99-.65-16.19-1.59-19.97,4.73-1.61,2.69-9.45,1.62-7.71-1.28,5.21-8.7,16.01-8.89,25.44-8.34-2.01-.78-3.9-1.73-5.53-2.96-3.09-2.35-3.28-6.35,.03-8.64,5.99-4.15,15.54-9.2,22.13-3.26,.11,.1,.21,.21,.31,.31,.46-.6,.92-1.21,1.35-1.82,.45-.63,.91-1.27,1.36-1.92-.68-3.17-2.38-6.4-5.96-5.53Zm-362.44,107.3c-8.44,8.57-16.86,17.15-25.25,25.77-2.34,.98-4.7,1.9-7.08,2.79,10.64-9.67,21.43-19.18,32.32-28.57Zm133.04-28.76c-16.16,12.79-32.41,25.55-48.82,38.09-31.8,14.92-63.13,30.82-93.51,48.51-21.72,12.65-42.93,26.21-63.33,40.9,16.62-17.6,33.38-35.07,50.26-52.43,6.38-2.77,12.63-5.89,18.7-9.36,4.96-2.83,9.63-6.19,14.64-8.9,5.6-3.03,11.43-5.71,17.11-8.59,11.38-5.78,22.71-11.65,33.98-17.62,37.37-19.78,74.15-40.69,110.45-62.38-13.08,10.69-26.23,21.3-39.48,31.79Z"/><path class="cls-4" d="M705.59,194.6c-1.73,4.38-5.62,7.2-7.29,11.44-1.13,2.89-9.02,2.06-7.71-1.28,1.7-4.32,5.56-7.06,7.29-11.44,1.55-3.93,3.39-8.09,7.13-10.44,.28-.18,.58-.33,.89-.49-1.96-2.36-4.82-1.89-7.07,1.06-9.73,12.74-19.79,25.29-31.62,36.18-7.23,6.65-15.44,13.07-24.51,17.35-.84-.62-1.86-.81-3.08-.19-2.79,1.4-5.58,2.8-8.37,4.2-1.8,.41-3.63,.73-5.49,.93-2.26,.24-3.98,1.98-5.17,4.38-17.35,8.56-34.91,16.74-53.16,23.21-22.37,7.93-46.16,11.4-67.38,22.48-18.2,9.51-31.88,23.57-45.02,39.02-10.82,12.72-21.27,26.12-34.48,36.51-6.26,4.93-12.94,8.44-19.92,10.55-.7-.22-1.39-.44-2.08-.66-11.44-3.63-28.37-9.11-35.06,4.15,1.37-.13,2.87,.29,3.91,1.04,1.11,.81,2.21,2.63,.54,3.54-2.52,1.37-3.68,4.15-5.6,6.2,3.09-2.11,6.23-4.11,9.72-5.62,1.73-.75,3.96-.59,5.51,.58,.98,.75,2.34,2.77,.54,3.54-5.02,2.17-9.33,5.34-13.79,8.41,.51,.35,1.08,.64,1.75,.82,11.21,3.03,22.52,3.1,33.23,.18,12.86,4.1,26.04,6.51,39.42,3.19,15.04-3.74,29.75-14.05,40.07-25.42,10.45-11.5,17.23-26.81,29.04-36.93,13.08-11.21,31.53-13.25,46.78-20.37,4.49-2.1,5.97-11.68,4.49-17.42,13.54-6.46,27.18-12.72,40.49-19.64,13.05-6.79,25.79-14.26,37.7-22.91,28.88-9.61,50.47-37.85,68.14-60.98,2.07-2.71,2.95-6.86,2.69-10.65-1.11,1.69-1.76,3.59-2.5,5.47Zm-219.98,131.54c-13.01,11.57-24.11,25.25-32.58,40.46-1.76,3.17-2.87,7.03-2.67,10.76-3.87,1.9-7.87,3.44-11.92,4.51-3.19,.84-6.38,1.24-9.56,1.35,9.03-7.91,16.89-17.15,24.65-26.33,11.94-14.12,23.74-28.89,39.51-38.97,3.42-2.19,6.95-4.1,10.53-5.83-6.22,4.32-12.23,8.97-17.96,14.06Z"/><g><rect class="cls-6" x="176.5" y="185.5" width="403" height="126" rx="47.3" ry="47.3"/><g><path class="cls-7" d="M219.51,204.9h25.34v8.91h-19.26v27.34h17.8v8.79h-17.8v37.23h-6.07v-82.28Z"/><path class="cls-7" d="M281.7,257.15c0,21.85-8.65,31.37-16.82,31.37-9.14,0-16.19-11.72-16.19-30.4,0-19.78,7.4-31.37,16.75-31.37s16.26,12.33,16.26,30.4Zm-26.8,.61c0,12.94,4.26,22.71,10.26,22.71s10.26-9.64,10.26-22.95c0-10.01-2.86-22.71-10.12-22.71s-10.4,11.72-10.4,22.95Z"/><path class="cls-7" d="M320.01,257.15c0,21.85-8.65,31.37-16.82,31.37-9.14,0-16.19-11.72-16.19-30.4,0-19.78,7.4-31.37,16.75-31.37s16.26,12.33,16.26,30.4Zm-26.8,.61c0,12.94,4.26,22.71,10.26,22.71s10.26-9.64,10.26-22.95c0-10.01-2.86-22.71-10.12-22.71s-10.4,11.72-10.4,22.95Z"/><path class="cls-7" d="M327.96,204.9h25.33v8.91h-19.26v27.34h17.8v8.79h-17.8v37.23h-6.07v-82.28Z"/><path class="cls-7" d="M363,259.59c.14,14.53,5.44,20.51,11.59,20.51,4.4,0,7.05-1.34,9.35-3.05l1.05,7.69c-2.16,1.71-5.86,3.66-11.24,3.66-10.4,0-16.61-11.96-16.61-29.79s6-31.86,15.84-31.86c11.03,0,13.96,16.97,13.96,27.83,0,2.2-.14,3.91-.21,5h-23.73Zm18.01-7.69c.07-6.84-1.61-17.46-8.51-17.46-6.21,0-8.93,10.01-9.42,17.46h17.94Z"/><path class="cls-7" d="M393.7,276.19c1.81,2.08,5.02,4.27,8.1,4.27,4.47,0,6.56-3.91,6.56-8.79,0-5.13-1.75-7.93-6.28-10.86-6.07-3.78-8.93-9.64-8.93-16.72,0-9.52,4.4-17.33,11.66-17.33,3.42,0,6.42,1.71,8.31,3.66l-1.54,7.81c-1.33-1.46-3.77-3.42-6.91-3.42-3.63,0-5.65,3.66-5.65,8.06,0,4.88,2.02,7.08,6.42,10.01,5.86,3.91,8.86,9.03,8.86,17.82,0,10.38-4.61,17.7-12.63,17.7-3.7,0-7.12-1.59-9.49-4.03l1.54-8.18Z"/><path class="cls-7" d="M429.57,211.12v16.97h8.79v8.18h-8.79v31.86c0,7.32,1.19,11.47,4.61,11.47,1.61,0,2.79-.37,3.56-.73l.28,8.06c-1.19,.85-3.07,1.46-5.44,1.46-2.86,0-5.17-1.59-6.63-4.52-1.75-3.17-2.37-8.42-2.37-15.38v-32.23h-5.24v-8.18h5.24v-14.16l6-2.81Z"/><path class="cls-7" d="M452.11,211.49c.07,3.66-1.47,6.59-3.91,6.59-2.16,0-3.7-2.93-3.7-6.59s1.61-6.71,3.84-6.71,3.77,2.93,3.77,6.71Zm-6.84,75.68v-59.08h6.14v59.08h-6.14Z"/><path class="cls-7" d="M463.97,228.09l6.63,33.2c1.12,5.37,2.02,10.25,2.72,15.14h.21c.77-4.88,1.75-9.77,2.86-15.14l6.56-33.2h6.42l-13.26,59.08h-5.86l-12.84-59.08h6.56Z"/><path class="cls-7" d="M513.59,287.17l-.49-7.45h-.21c-1.88,4.64-5.51,8.79-10.33,8.79-6.84,0-10.33-8.42-10.33-16.97,0-14.28,7.26-22.09,20.31-21.97v-1.22c0-4.88-.77-13.67-7.68-13.67-3.14,0-6.42,1.71-8.79,4.39l-1.4-7.08c2.79-3.17,6.84-5.25,11.1-5.25,10.33,0,12.84,12.33,12.84,24.17v22.09c0,5.13,.14,10.13,.56,14.16h-5.58Zm-.91-30.15c-6.7-.24-14.31,1.83-14.31,13.31,0,6.96,2.65,10.25,5.79,10.25,4.4,0,7.19-4.88,8.17-9.89,.21-1.1,.35-2.32,.35-3.42v-10.25Z"/><path class="cls-7" d="M528.53,200.5h6.14v86.67h-6.14v-86.67Z"/></g></g></svg>