<?xml version="1.0" encoding="UTF-8"?><svg id="Layer_1" xmlns="http://www.w3.org/2000/svg" width="118.24" height="132.08" viewBox="0 0 118.24 132.08"><defs><style>.cls-1{fill:#d45f00;}</style></defs><path class="cls-1" d="M108.87,34.47c-4.29,2.54-10.22,2.21-14.94,.42-.49-.64-1-1.26-1.54-1.85,.9-.28,1.8-.58,2.61-.84,2.73-.88,1.31-6.14-.61-7.14-2.94-1.54-6.36-1.79-9.85-1.65,.45-2.28-.58-6.03-2.44-5.48-3.94,1.18-7.69,2.92-11.51,4.41,.91-1.8,1.65-3.68,2.09-5.7,.24-1.08-1.05-6.78-2.99-4.94-2.53,2.4-4.13,5.71-5.88,8.68-.7,1.19-1.8,3.64-3.14,5.4-.04,.01-.08,.02-.13,.03-.03-.22-.07-.37-.11-.32,0-.26,0-.52,0-.78,.01-2.54-2.94-6.57-3.92-2.22-.23,1.02-.19,2.06-.04,3.09,0,.47,0,.94,0,1.4-.3,.1-.61,.17-.92,.27-.16-.2-.32-.41-.46-.65-.63-1.06-1.12-2.2-1.73-3.27-1.75-3.07-3.18-.64-3.22,1.82l-.81,.81c-1.08,.36-1.34,2.34-.95,4.13-.19,.09-.4,.17-.59,.26-.43-1.19-1.18-2.13-2.19-2.13-1.33,0-1.7,2.07-1.34,3.99-.51,.29-.99,.6-1.49,.9-2.74-2.79-5.5-5.55-8.51-7.97-2.74-2.2-2.52,4.7-1.42,6.01,.04,.04,.07,.09,.11,.13-2.81-2.11-5.72-4.05-9.17-4.99-1.17-.32-1.79,1.06-1.89,1.99-.23,2.21-.2,4.52,.04,6.87-.71-.1-1.42-.2-2.15-.25-2.51-.19-1.2,6.03,.1,6.85,1.34,.84,2.65,1.72,3.97,2.6-.33,.43-.48,1.21-.51,2.05-2.33-1.47-2.7,2.37-1.91,4.85-.98,.07-1.34,1.07-1.33,2.3-3.87-.19-7.73,.04-11.55,1.18-2.75,.82-1.29,6.17,.61,7.14,2.81,1.44,5.61,2.94,8.35,4.53-.31,1.54-.55,3.1-.68,4.68-.76,.24-1.51,.57-2.25,1.02-1.87,1.15-.76,4.78,.11,6.14,.41,.64,.87,1.2,1.36,1.71-3.02,.45-6.02,.98-8.97,1.82-2.71,.78-1.48,6.99,1.14,7.19,3.4,.26,6.82,.98,10.11,2.04-.74,.8-1.46,1.63-2.05,2.56-1.1,1.77-.57,4.86,.98,6.21,1.48,1.29,3.41,1.98,5.29,2.69-1.04,.59-2.01,1.31-2.77,2.43-1.2,1.79-.53,5.54,1.5,6.5,4.68,2.22,9.84,.51,14.61,2,.18,.06,.67,.32,1.03,.48-.15,.64-.26,1.37-.34,1.7-.59,2.41-.49,4.75,.23,7.12,.22,.72,1.13,2.72,2.26,2.35,2.93-.96,5.77-2.28,8.31-4.02,5.52,.31,10.92,1.43,16.29,2.68,1.52,.35,2.04-1.78,1.95-2.88-.17-2.13-.76-4.11-1.31-6.15,1.07-.36,2.14-.75,3.19-1.2,3.39,.84,6.65,2.85,9.62,4.51,1.3,.73,1.87-1.75,1.92-2.44,.12-1.59-.36-3.22-1.49-4.37-.71-.72-1.33-1.52-1.89-2.36,1.52-1.08,3-2.25,4.43-3.51,1.67,.77,3.28,1.6,4.8,2.18,2.97,1.14,1.46-5.39,.9-6.31-.18-.3-.4-.6-.63-.91,.53-.59,1.04-1.18,1.55-1.79,1.44,.29,2.89,.37,4.39-.12,.95-.31,1.32-1.16,1.41-2.13,1.02,.83,1.83,1.94,2.73,3.05,.96,1.18,2.13,.96,2.7-.43,.62-1.51,.16-3.81-.81-5.09-1.31-1.73-2.36-3.64-3.26-5.62,.69-1.22,1.34-2.45,1.95-3.69,1.1,.37,2.21,.74,3.32,1.11,2.9,.97,1.67-5.29,.9-6.31-.38-.51-.88-1.05-1.41-1.6,.14-.42,.26-.85,.39-1.27,1.77,.22,3.53,.62,5.29,.84,3.17,.4,1.83-5.63,.43-6.81-.16-.13-.98-.99-1.7-1.71,1.33-1.3,2.84-2.4,4.16-3.7,1.52-1.5,1.27-6.22-1.1-6.94-1.52-.46-3.13-.41-4.71-.57v-.04s.05-.06,.08-.08c2.86-2.66,6.6-4.95,8.2-8.65,.73-1.67,.1-5.15-1.79-5.88-.07-.03-.14-.04-.2-.06,.34-.17,.69-.32,1.03-.49,.78-.3,1.54-.65,2.26-1.07,2.12-1.25,.68-8-2.11-6.78Z"/></svg>