<?xml version="1.0" encoding="UTF-8"?><svg id="Layer_1" xmlns="http://www.w3.org/2000/svg" width="143" height="161" viewBox="0 0 143 161"><defs><style>.cls-1{fill:#009492;}</style></defs><path class="cls-1" d="M143.06,52.77c-5.41-.2-11.3-.72-17.57-1.69-2.95-.46-5.78-.99-8.47-1.57-.54-.71-1.11-1.4-1.71-2.05,.82-.22,1.8-.51,2.89-.94,8.03-3.09,15.14-10.15,14.08-12.6-.8-1.86-6.75-2.08-25.69,2.84,3.28-12.77,3.29-18.14,1.45-19-2.09-.98-7.09,3.54-16.93,17.81,1.01-2,1.83-4.08,2.32-6.33,.23-1.03-.8-5.84-2.45-5.89-.44-.01-.58,.41-.87,.4-1.92-.04-2.22-19.35-3.63-19.47-1.17-.1-3.42,13.04-6.38,35.1-.05,.01-.09,.02-.14,.03-.04-.25-.07-.41-.12-.35,0-.29,0-.58,0-.87,.02-2.82-3.26-7.29-4.35-2.46-.25,1.13-.21,2.28-.05,3.43,0,.52,0,1.04,0,1.56-.34,.11-.68,.19-1.02,.3-.18-.22-.36-.45-.52-.72,0,0-.88-1.3-1.47-2.79-.99-2.49,2.72-19.93,3.24-19.76,.38,.13-2.01,9.16-5.58,17.32-.64,1.46-1.23,2.69-1.69,3.61l-.9,.9c-1.2,.4-1.49,2.59-1.05,4.58-.22,.1-.44,.19-.66,.29-.48-1.32-1.31-2.37-2.43-2.37-1.47,0-1.89,2.29-1.49,4.42-.56,.32-1.1,.67-1.66,1-3.04-3.09-6.1-6.16-9.45-8.85-3.05-2.44-2.8,5.22-1.57,6.67,.04,.05,.08,.09,.12,.14-3.56-.67-9.44-2.2-10.18-5.54-1.38-6.28,16.11-15.9,17.67-14.11,.83,.95-2.21,5.92-19.71,23.94-.79-.11-1.58-.22-2.38-.28-.38-.03-.64,.11-.69,.12-1.92,.46-9.92-10.08-9.55-10.32,.38-.25,8.17,11.04,14.74,20.69-.37,.48-.53,1.34-.56,2.28-2.59-1.63-3,2.63-2.12,5.38-.36,.31-.75,.58-1.15,.8-8.72,4.76-26.05-11.99-29.77-15.67,13.63,7.97,16.7,14.25,16.62,18.74-.04,2.3-2.2,6.45,.68,7.93,3.12,1.6,6.23,3.26,9.26,5.03-.35,1.71-.61,3.44-.75,5.19-25.4,2.91-31.2,3.54-31.2,3.52,0-.05,19.87-5.07,28.82,4.43,.73,.78,1.24,1.49,1.51,1.9-3.35,.5-6.68,1.09-9.95,2.02-2.34,.67,.72,4.39,1.26,7.98,1.45,9.61-8.89,17.98-8.18,18.68,.46,.45,4.83-2.87,19.39-16.42-.59,.43-1.41,1.46-2.27,2.85-1.22,1.96-.63,5.39,1.09,6.89,1.65,1.43,3.78,2.19,5.87,2.99-.8,.53-1.95,1.4-3.07,2.7-8.31,9.67-1.64,28.06,.54,27.93,2.08-.12,.43-17.09,7.16-19.36,1.8-.61,5.99-.44,10.18,.87,.2,.06,.75,.35,1.15,.53-.17,.71-.29,1.52-.38,1.89-.43,1.77-.4,3.14-.42,3.37-.29,3.65-4.84,17.83-4.21,18.09,.42,.17,1.93-6.32,7.4-10.95,3.11-2.63,6.54-3.85,9.22-4.46,6.12,.35,12.12,1.58,18.08,2.97,1.68,.39,2.26-1.98,2.16-3.2-.19-2.37-.84-4.56-1.46-6.82,.66-.53,1.25-.73,1.78-.63,2.36,.48,3.44,7.28,3.23,20.39,5.89-12.61,8.39-16.39,9.21-16.09,.1,.04,.32,.18,.62,.14,1.01-.14,1.46-2.2,1.51-2.85,.13-1.77-.4-3.58-1.65-4.85-.79-.8-1.47-1.69-2.09-2.62,1.69-1.2,3.33-2.5,4.91-3.89,1.85,.86,3.64,1.77,5.33,2.41,3.29,1.26,1.62-5.98,1-7-.2-.33-.44-.67-.7-1,.35-.69,.63-1.02,.87-.98,1,.15,.95,7.01-.14,20.57,3.32-15.76,5.04-21.43,5.85-21.7,.04-.01,.36-.11,.68-.37,.56-.46,.81-1.19,.88-2,1.13,.92,2.03,2.15,3.03,3.38,1.07,1.31,2.36,1.06,2.99-.47,.69-1.68,.18-4.22-.89-5.64-1.45-1.92-2.62-4.04-3.61-6.24,.77-1.35,1.49-2.72,2.17-4.1,.82,.15,2.18,.47,3.69,1.23,7.78,3.94,8.99,14.5,9.47,14.36,.49-.14-.34-11.51-8.47-21.36-.59-.71-1.13-1.31-1.56-1.78,.16-.47,.29-.94,.44-1.41,1.96,.24,3.92,.69,5.87,.93,3.51,.44,2.03-6.25,.47-7.55-.18-.15-1.09-1.1-1.89-1.9,1.47-1.44,3.15-2.66,4.62-4.11,1.69-1.66,1.41-6.9-1.22-7.7-1.69-.51-3.48-.46-5.23-.63v-.04c12.95,12.04,16.82,14.01,17.74,13.22,1.85-1.59-8.44-14.46-8.55-22.91-.01-.99,.06-5.73-1.99-6.52-.07-.03-.15-.04-.22-.07,.38-.19,.76-.36,1.14-.54,1.46-.7,2.49-1.18,2.51-1.19,.89-.42,2.76-1.38,7.12-3.79Z"/></svg>