<?xml version="1.0" encoding="UTF-8"?><svg id="Layer_1" xmlns="http://www.w3.org/2000/svg" width="288" height="600" xmlns:xlink="http://www.w3.org/1999/xlink" viewBox="0 0 288 600"><defs><style>.cls-1{fill:url(#linear-gradient-2);}.cls-2{fill:#c8ff35;}.cls-3{fill:#df7700;}.cls-4{fill:#009f86;}.cls-5{fill:#2a1500;}.cls-6{fill:url(#linear-gradient-3);}.cls-7{fill:url(#linear-gradient);}</style><linearGradient id="linear-gradient" x1="7" y1="423" x2="267.68" y2="423" gradientTransform="matrix(1, 0, 0, 1, 0, 0)" gradientUnits="userSpaceOnUse"><stop offset=".79" stop-color="#ff7bac"/><stop offset=".83" stop-color="#ff7bac" stop-opacity=".76"/><stop offset=".92" stop-color="#ff7bac" stop-opacity=".36"/><stop offset=".97" stop-color="#ff7bac" stop-opacity=".1"/><stop offset="1" stop-color="#ff7bac" stop-opacity="0"/></linearGradient><linearGradient id="linear-gradient-2" x1="119" y1="242.5" x2="163" y2="242.5" gradientTransform="matrix(1, 0, 0, 1, 0, 0)" gradientUnits="userSpaceOnUse"><stop offset="0" stop-color="#fff"/><stop offset=".09" stop-color="#ffecd8"/><stop offset=".21" stop-color="#ffd4a7"/><stop offset=".33" stop-color="#ffc07d"/><stop offset=".46" stop-color="#ffb05a"/><stop offset=".59" stop-color="#ffa340"/><stop offset=".72" stop-color="#ff9a2d"/><stop offset=".86" stop-color="#ff9421"/><stop offset="1" stop-color="#ff931e"/></linearGradient><linearGradient id="linear-gradient-3" x1="95.96" y1="74.62" x2="191.05" y2="74.62" gradientTransform="matrix(1, 0, 0, 1, 0, 0)" gradientUnits="userSpaceOnUse"><stop offset=".54" stop-color="#ff7bac"/><stop offset=".64" stop-color="#ff7bac" stop-opacity=".76"/><stop offset=".82" stop-color="#ff7bac" stop-opacity=".36"/><stop offset=".94" stop-color="#ff7bac" stop-opacity=".1"/><stop offset="1" stop-color="#ff7bac" stop-opacity="0"/></linearGradient></defs><path class="cls-7" d="M245,406c3.1-13,6.6-36.29-1.43-62.43-11.91-38.76-49.4-84.55-105.71-84.57-54.03-.02-94.55,42.09-105.71,84.57-6.74,25.67-1.9,48.16,1.86,60.43-14.51,14.5-26.9,36.28-27,70,0,0,0,.23,0,.43,.13,36.92,54.23,112.03,130.29,112.57,65.31,.46,127.37-53,130.29-112.57,1.52-30.96-13.34-55.73-22.57-68.43Z"/><rect class="cls-1" x="119" y="57" width="44" height="371"/><circle class="cls-2" cx="141" cy="432" r="47"/><rect class="cls-5" x="107" y="524" width="78" height="15"/><path class="cls-6" d="M156,134c-1.36,.62-21.07,9.25-36,0-22.13-13.7-23-60-23-60h0s-.96-6.7-1-7c-.81-5.97,11.9-56.65,48.5-56,29.9,.53,47.63,34.82,46.5,58-.17,3.45-.78,5.97-2,11-3.69,15.21-10.63,43.84-33,54Z"/><rect x="79" y="51" width="30" height="13" rx="6.5" ry="6.5"/><rect x="84" y="88" width="30" height="13" rx="6.5" ry="6.5"/><rect x="173" y="87" width="30" height="13" rx="6.5" ry="6.5"/><rect x="173" y="51" width="30" height="13" rx="6.5" ry="6.5"/><rect x="99" y="54" width="85" height="6"/><rect x="99" y="93" width="85" height="6"/><rect class="cls-4" x="118" y="184" width="46" height="3"/><rect class="cls-4" x="118" y="353" width="46" height="3"/><rect class="cls-4" x="118" y="306" width="46" height="3"/><rect class="cls-4" x="118" y="267" width="46" height="3"/><rect class="cls-4" x="117" y="227" width="46" height="3"/><rect class="cls-3" x="121" y="60" width="5" height="464"/><rect class="cls-3" x="142" y="60" width="6" height="464"/><rect class="cls-3" x="132" y="60" width="5" height="464"/><rect class="cls-3" x="154" y="60" width="5" height="464"/></svg>